<svg xmlns="http://www.w3.org/2000/svg" xmlns:xlink="http://www.w3.org/1999/xlink" width="1080" height="1080" style="width:100%;height:100%;transform:translate3d(0,0,0);content-visibility:visible"><defs><mask id="cn" mask-type="alpha"><use xlink:href="#a"/></mask><mask id="cl" mask-type="alpha"><g filter="url(#b)"><use xlink:href="#c"/></g></mask><mask id="ck" mask-type="alpha"><use xlink:href="#d"/></mask><mask id="cj" mask-type="alpha"><use xlink:href="#e"/></mask><mask id="ch" mask-type="alpha"><g filter="url(#f)"><use xlink:href="#g"/></g></mask><mask id="cf" mask-type="alpha"><use xlink:href="#h"/></mask><mask id="cd" mask-type="alpha"><g filter="url(#i)"><use xlink:href="#j"/></g></mask><mask id="cc" mask-type="alpha"><use xlink:href="#k"/></mask><mask id="cb" mask-type="alpha"><use xlink:href="#l"/></mask><mask id="bZ" mask-type="alpha"><g filter="url(#m)"><use xlink:href="#n"/></g></mask><mask id="bX" mask-type="alpha"><use xlink:href="#o"/></mask><mask id="bV" mask-type="alpha"><g filter="url(#p)"><use xlink:href="#q"/></g></mask><mask id="bU" mask-type="alpha"><use xlink:href="#r"/></mask><mask id="bT" mask-type="alpha"><use xlink:href="#s"/></mask><mask id="bR" mask-type="alpha"><g filter="url(#t)"><use xlink:href="#u"/></g></mask><mask id="bH" mask-type="alpha"><use xlink:href="#v"/></mask><mask id="bG" mask-type="alpha"><use xlink:href="#w"/></mask><mask id="bE" mask-type="alpha"><use xlink:href="#x"/></mask><mask id="bD" mask-type="alpha"><use xlink:href="#y"/></mask><mask id="bB" mask-type="alpha"><use xlink:href="#z"/></mask><mask id="bA" mask-type="alpha"><use xlink:href="#A"/></mask><mask id="by" mask-type="alpha"><use xlink:href="#B"/></mask><mask id="bx" mask-type="alpha"><use xlink:href="#C"/></mask><mask id="bu" mask-type="alpha"><use xlink:href="#D"/></mask><mask id="bv" mask-type="alpha"><use xlink:href="#E"/></mask><mask id="br" mask-type="alpha"><use xlink:href="#F"/></mask><mask id="bs" mask-type="alpha"><use xlink:href="#G"/></mask><mask id="bo" mask-type="alpha"><use xlink:href="#H"/></mask><mask id="bp" mask-type="alpha"><use xlink:href="#I"/></mask><mask id="bl" mask-type="alpha"><use xlink:href="#J"/></mask><mask id="bm" mask-type="alpha"><use xlink:href="#K"/></mask><mask id="bh" mask-type="alpha"><use xlink:href="#L"/></mask><mask id="bd" mask-type="alpha"><use xlink:href="#M"/></mask><mask id="aZ" mask-type="alpha"><use xlink:href="#N"/></mask><mask id="aX" mask-type="alpha"><use xlink:href="#O"/></mask><mask id="aW" mask-type="alpha"><use xlink:href="#P"/></mask><mask id="aV" mask-type="alpha"><use xlink:href="#Q"/></mask><mask id="aT" mask-type="alpha"><use xlink:href="#R"/></mask><mask id="aS" mask-type="alpha"><use xlink:href="#S"/></mask><mask id="aR" mask-type="alpha"><use xlink:href="#T"/></mask><mask id="aP" mask-type="alpha"><use xlink:href="#U"/></mask><mask id="aO" mask-type="alpha"><use xlink:href="#V"/></mask><mask id="aN" mask-type="alpha"><use xlink:href="#W"/></mask><mask id="aL" mask-type="alpha"><use xlink:href="#X"/></mask><mask id="aK" mask-type="alpha"><use xlink:href="#Y"/></mask><mask id="aJ" mask-type="alpha"><use xlink:href="#Z"/></mask><mask id="aG" mask-type="alpha"><use xlink:href="#aa"/></mask><mask id="aF" mask-type="alpha"><use xlink:href="#ab"/></mask><mask id="aE" mask-type="alpha"><use xlink:href="#ac"/></mask><mask id="aC" mask-type="alpha"><use xlink:href="#ad"/></mask><mask id="az" mask-type="alpha"><use xlink:href="#ae"/></mask><mask id="ay" mask-type="alpha"><use xlink:href="#af"/></mask><mask id="ax" mask-type="alpha"><use xlink:href="#ag"/></mask><mask id="av" mask-type="alpha"><use xlink:href="#ah"/></mask><mask id="as" mask-type="alpha"><use xlink:href="#ai"/></mask><mask id="ar" mask-type="alpha"><use xlink:href="#aj"/></mask><mask id="aq" mask-type="alpha"><use xlink:href="#ak"/></mask><mask id="ao" mask-type="alpha"><use xlink:href="#al"/></mask><clipPath id="am"><path d="M0 0h1080v1080H0z"/></clipPath><clipPath id="cg"><path d="M0 0h1920v1079H0z"/></clipPath><clipPath id="cm"><path d="M0 0h1920v1079H0z"/></clipPath><clipPath id="ci"><path d="M0 0h1920v1079H0z"/></clipPath><clipPath id="bY"><path d="M0 0h1920v1079H0z"/></clipPath><clipPath id="ce"><path d="M0 0h1920v1079H0z"/></clipPath><clipPath id="ca"><path d="M0 0h1920v1079H0z"/></clipPath><clipPath id="bQ"><path d="M0 0h1920v1079H0z"/></clipPath><clipPath id="bW"><path d="M0 0h1920v1079H0z"/></clipPath><clipPath id="bS"><path d="M0 0h1920v1079H0z"/></clipPath><clipPath id="bP"><path d="M0 0h1920v1079H0z"/></clipPath><clipPath id="bO"><path d="M0 0h1920v1079H0z"/></clipPath><clipPath id="bN"><path d="M0 0h1920v1079H0z"/></clipPath><clipPath id="bM"><path d="M0 0h1920v1079H0z"/></clipPath><clipPath id="bL"><path d="M0 0h1920v1079H0z"/></clipPath><clipPath id="bK"><path d="M0 0h1920v1079H0z"/></clipPath><clipPath id="bJ"><path d="M0 0h1920v1079H0z"/></clipPath><clipPath id="bI"><path d="M0 0h1920v1079H0z"/></clipPath><clipPath id="bF"><path d="M0 0h1920v1079H0z"/></clipPath><clipPath id="bC"><path d="M0 0h1920v1079H0z"/></clipPath><clipPath id="bz"><path d="M0 0h1920v1079H0z"/></clipPath><clipPath id="bw"><path d="M0 0h1920v1079H0z"/></clipPath><clipPath id="bt"><path d="M0 0h1920v1079H0z"/></clipPath><clipPath id="bq"><path d="M0 0h1920v1079H0z"/></clipPath><clipPath id="bn"><path d="M0 0h1920v1079H0z"/></clipPath><clipPath id="bk"><path d="M0 0h1920v1079H0z"/></clipPath><clipPath id="bg"><path d="M0 0h1920v1079H0z"/></clipPath><clipPath id="bi"><path d="M0 0h1920v1079H0z"/></clipPath><clipPath id="bc"><path d="M0 0h1920v1079H0z"/></clipPath><clipPath id="be"><path d="M0 0h1920v1079H0z"/></clipPath><clipPath id="aY"><path d="M0 0h1920v1079H0z"/></clipPath><clipPath id="ba"><path d="M0 0h1920v1079H0z"/></clipPath><clipPath id="aU"><path d="M0 0h1920v1079H0z"/></clipPath><clipPath id="aQ"><path d="M0 0h1920v1079H0z"/></clipPath><clipPath id="aM"><path d="M0 0h1920v1079H0z"/></clipPath><clipPath id="aI"><path d="M0 0h1920v1079H0z"/></clipPath><clipPath id="aB"><path d="M0 0h1920v1079H0z"/></clipPath><clipPath id="aH"><path d="M0 0h1920v1079H0z"/></clipPath><clipPath id="aD"><path d="M0 0h1920v1079H0z"/></clipPath><clipPath id="au"><path d="M0 0h1920v1079H0z"/></clipPath><clipPath id="aA"><path d="M0 0h1920v1079H0z"/></clipPath><clipPath id="aw"><path d="M0 0h1920v1079H0z"/></clipPath><clipPath id="an"><path d="M0 0h1920v1079H0z"/></clipPath><clipPath id="at"><path d="M0 0h1920v1079H0z"/></clipPath><clipPath id="ap"><path d="M0 0h1920v1079H0z"/></clipPath><path fill="#DB8D74" d="M521.5 303c-16.5 11-42 12.5-66 13.5s-53.834 22.53-51 52c2.5 26 27.5 43 54.5 43.5 30.012.556 61-2.5 100.5-24s36.5-55.5 23.5-77-45-19-61.5-8z" transform="rotate(-6 6207.043 -8631.536)" style="display:block" id="e"/><path fill="#DB8D74" d="M521.5 303c-16.5 11-42 12.5-66 13.5s-53.834 22.53-51 52c2.5 26 27.5 43 54.5 43.5 30.012.556 61-2.5 100.5-24s36.5-55.5 23.5-77-45-19-61.5-8z" transform="rotate(-9.109 4402.023 -5457.243)" style="display:block" id="l"/><path fill="#DB8D74" d="M482.763 275.603c-62.54 10.163-70.236 76.625-62.591 127.106 8.645 49.929 23.159 76.255 59.745 71.089 30.143-4.48 46.95-27.825 42.718-65.137-4.113-34.11 2.888-55.598 6.279-76.482 5.387-32.209-15.527-60.714-46.15-56.576z" transform="rotate(35.667 107.154 2195.246)" style="display:block" id="o"/><path fill="#DB8D74" d="M521.5 303c-16.5 11-42 12.5-66 13.5s-53.834 22.53-51 52c2.5 26 27.5 43 54.5 43.5 30.012.556 61-2.5 100.5-24s36.5-55.5 23.5-77-45-19-61.5-8z" transform="translate(975 551.5)" style="display:block" id="s"/><path fill="#FFCBA3" d="M208.585-408.855c-7.835-3.645-36.835-2.645-50.532 21.238-12.377 21.58-5.057 49.093 16.487 61.532 0 0 2.21 1.585 4.192 2.604C165-376.5 201.25-403.25 213.777-407.001c-1.277-.999-5.192-1.854-5.192-1.854z" transform="rotate(.02 -2326156.838 4082455.061)" style="display:block" id="v"/><path fill="#B23232" d="m181.611-391.64 1.47 3.198c1.386 3.013.04 6.561-3.004 7.925-3.045 1.363-6.635.025-8.02-2.989l-1.47-3.198c-1.386-3.014-.041-6.561 3.004-7.925 3.044-1.363 6.635-.026 8.02 2.988z" transform="rotate(.02 -2326156.838 4082455.061)" style="display:block" id="w"/><path fill="#FFCBA3" d="M208.585-408.855c-7.835-3.645-36.835-2.645-50.532 21.238-12.377 21.58-5.057 49.093 16.487 61.532 0 0 2.21 1.585 4.192 2.604C165-376.5 201.25-403.25 213.777-407.001c-1.277-.999-5.192-1.854-5.192-1.854z" transform="rotate(1.568 -20927.52 37851.114)" style="display:block" id="x"/><path fill="#B23232" d="m184.23-391.34 1.119 3.378c1.054 3.184-.808 6.524-4.159 7.46-3.35.936-6.92-.888-7.975-4.072l-1.118-3.378c-1.054-3.185.808-6.524 4.158-7.46 3.35-.936 6.921.887 7.975 4.071z" transform="rotate(1.568 -20927.52 37851.114)" style="display:block" id="y"/><path fill="#FFCBA3" d="M208.585-408.855c-7.835-3.645-36.835-2.645-50.532 21.238-12.377 21.58-5.057 49.093 16.487 61.532 0 0 2.21 1.585 4.192 2.604C165-376.5 201.25-403.25 213.777-407.001c-1.277-.999-5.192-1.854-5.192-1.854z" transform="rotate(1.914 -16957.05 30953.81)" style="display:block" id="z"/><path fill="#B23232" d="m182.866-391.497 1.301 3.285c1.227 3.095-.366 6.543-3.557 7.702-3.19 1.159-6.772-.412-7.998-3.507l-1.302-3.285c-1.227-3.095.366-6.543 3.557-7.702 3.191-1.159 6.772.411 7.999 3.507z" transform="rotate(1.914 -16957.05 30953.81)" style="display:block" id="A"/><path fill="#FFCBA3" d="M208.585-408.855c-7.835-3.645-36.835-2.645-50.532 21.238-12.377 21.58-5.057 49.093 16.487 61.532 0 0 2.21 1.585 4.192 2.604C165-376.5 201.25-403.25 213.777-407.001c-1.277-.999-5.192-1.854-5.192-1.854z" transform="rotate(1.568 -20927.273 37851.03)" style="display:block" id="B"/><path fill="#B23232" d="m184.225-391.341 1.12 3.378c1.054 3.183-.807 6.524-4.156 7.46-3.35.938-6.921-.885-7.976-4.069l-1.12-3.378c-1.053-3.184.808-6.524 4.157-7.46 3.35-.938 6.921.884 7.975 4.069z" transform="rotate(1.568 -20927.273 37851.03)" style="display:block" id="C"/><path fill="#58CC02" d="M318.202-45.464c15.252 94.999-31.572 144.035-95.655 159.537-84.448 20.428-134.794-43.146-151.05-96.71C16-165.5 158.631-177.933 166.59-174.39a21.642 21.642 0 0 0 13.898 1.277c13.72-3.334 29.364-13.462 52.062-24.71 28.634-14.19 72.547 1.407 71.323 40.679 0 0 5.505 56.717 14.329 111.68zm-15 4c15.252 94.999-16.572 140.035-80.655 155.537-84.448 20.428-144.155-35.09-168.05-85.71C36.399-9.976 31.209-79.308 31.209-79.308c-2.443-42.408 8.57-88.445 47.15-106.222 17.568-8.095 35.66-11.367 49.816-6.28 21.939 7.884 30.456 13.877 38.415 17.42 4.363 1.942 127.788 77.963 136.612 132.926z" transform="rotate(-2.646 13776.4 -22136.3)" style="display:block" id="E"/><path fill="#58CC02" d="M318.202-45.464c15.252 94.999-31.572 144.035-95.655 159.537-84.448 20.428-134.794-43.146-151.05-96.71C16-165.5 158.631-177.933 166.59-174.39a21.642 21.642 0 0 0 13.898 1.277c13.72-3.334 29.364-13.462 52.062-24.71 28.634-14.19 72.547 1.407 71.323 40.679 0 0 5.505 56.717 14.329 111.68zm-15 4c15.252 94.999-16.572 140.035-80.655 155.537-84.448 20.428-144.155-35.09-168.05-85.71C36.399-9.976 31.209-79.308 31.209-79.308c-2.443-42.408 8.57-88.445 47.15-106.222 17.568-8.095 35.66-11.367 49.816-6.28 21.939 7.884 30.456 13.877 38.415 17.42 4.363 1.942 127.788 77.963 136.612 132.926z" transform="rotate(-2.989 12395.394 -19598.074)" style="display:block" id="G"/><path fill="#58CC02" d="M318.202-45.464c15.252 94.999-31.572 144.035-95.655 159.537-84.448 20.428-134.794-43.146-151.05-96.71C16-165.5 158.631-177.933 166.59-174.39a21.642 21.642 0 0 0 13.898 1.277c13.72-3.334 29.364-13.462 52.062-24.71 28.634-14.19 72.547 1.407 71.323 40.679 0 0 5.505 56.717 14.329 111.68zm-15 4c15.252 94.999-16.572 140.035-80.655 155.537-84.448 20.428-144.155-35.09-168.05-85.71C36.399-9.976 31.209-79.308 31.209-79.308c-2.443-42.408 8.57-88.445 47.15-106.222 17.568-8.095 35.66-11.367 49.816-6.28 21.939 7.884 30.456 13.877 38.415 17.42 4.363 1.942 127.788 77.963 136.612 132.926z" transform="rotate(-.219 157120.03 -271146.965)" style="display:block" id="I"/><path fill="#58CC02" d="M318.202-45.464c15.252 94.999-31.572 144.035-95.655 159.537-84.448 20.428-134.794-43.146-151.05-96.71C16-165.5 158.631-177.933 166.59-174.39a21.642 21.642 0 0 0 13.898 1.277c13.72-3.334 29.364-13.462 52.062-24.71 28.634-14.19 72.547 1.407 71.323 40.679 0 0 5.505 56.717 14.329 111.68zm-15 4c15.252 94.999-16.572 140.035-80.655 155.537-84.448 20.428-144.155-35.09-168.05-85.71C36.399-9.976 31.209-79.308 31.209-79.308c-2.443-42.408 8.57-88.445 47.15-106.222 17.568-8.095 35.66-11.367 49.816-6.28 21.939 7.884 30.456 13.877 38.415 17.42 4.363 1.942 127.788 77.963 136.612 132.926z" transform="rotate(-2.985 12394.635 -19619.16)" style="display:block" id="K"/><path fill="#FFC7B8" d="M552.811-154.957c-14.873-8.982-34.962-11.237-52.179-1.891l-28.256 15.339a51.11 51.11 0 0 0-25.616 34.316l-7.98 37.63C434.57-49.714 440-30 458.986-17.428 477.972-4.856 510.5 12 528.501 43.852c6.897 12.204 42.974 11.603 54.934 7.15l38.691-9.376A38.335 38.335 0 0 0 651.93 8.839l6.319-51.72c-.568-6.318-6.973-19.296-11.519-26.102C621-107.5 590-132.5 552.811-154.957z" transform="rotate(-6.966 5759.877 -7826.362)" style="display:block" id="L"/><path fill="#FFC7B8" d="M552.811-154.957c-14.873-8.982-34.962-11.237-52.179-1.891l-28.256 15.339a51.11 51.11 0 0 0-25.616 34.316l-7.98 37.63C434.57-49.714 440-30 458.986-17.428 477.972-4.856 510.5 12 528.501 43.852c6.897 12.204 42.974 11.603 54.934 7.15l38.691-9.376A38.335 38.335 0 0 0 651.93 8.839l6.319-51.72c-.568-6.318-6.973-19.296-11.519-26.102C621-107.5 590-132.5 552.811-154.957z" transform="rotate(-.059 564644.142 -969581.241)" style="display:block" id="M"/><path fill="#FFC7B8" d="M552.811-154.957c-14.873-8.982-34.962-11.237-52.179-1.891l-28.256 15.339a51.11 51.11 0 0 0-25.616 34.316l-7.98 37.63C434.57-49.714 440-30 458.986-17.428 477.972-4.856 510.5 12 528.501 43.852c6.897 12.204 42.974 11.603 54.934 7.15l38.691-9.376A38.335 38.335 0 0 0 651.93 8.839l6.319-51.72c-.568-6.318-6.973-19.296-11.519-26.102C621-107.5 590-132.5 552.811-154.957z" transform="rotate(-6.966 5759.878 -7826.362)" style="display:block" id="N"/><path fill="#CC348D" d="M745.232-224.137c-.304-28.44 22.505-51.741 50.945-52.045 28.44-.304 51.741 22.506 52.045 50.946.304 28.44-22.505 51.74-50.945 52.044-28.44.304-51.741-22.505-52.045-50.945z" transform="rotate(-3.225 11773.017 -18195.726)" style="display:block" id="O"/><path fill="#0084C2" d="M732.862-124.382c4.759-25.473 29.266-42.264 54.739-37.505s42.265 29.265 37.506 54.738-29.266 42.265-54.739 37.506-42.265-29.266-37.506-54.739z" transform="rotate(3.225 -9135.546 18467.86)" style="display:block" id="P"/><path fill="#AFD5E0" d="M750.527-172.52c-2.856 6.832 153.036 310.917-59.97 264.614s1.1-278.504 4.916-287.632c3.816-9.128 19.234-11.375 34.437-5.019 15.203 6.356 24.433 18.909 20.617 28.037z" transform="rotate(-6.449 6505.285 -9054.674)" style="display:block" id="Q"/><path fill="#CC348D" d="M745.232-224.137c-.304-28.44 22.505-51.741 50.945-52.045 28.44-.304 51.741 22.506 52.045 50.946.304 28.44-22.505 51.74-50.945 52.044-28.44.304-51.741-22.505-52.045-50.945z" transform="rotate(-5.989 6934.078 -9712.103)" style="display:block" id="R"/><path fill="#0084C2" d="M732.862-124.382c4.759-25.473 29.266-42.264 54.739-37.505s42.265 29.265 37.506 54.738-29.266 42.265-54.739 37.506-42.265-29.266-37.506-54.739z" transform="rotate(5.989 -4300.438 9982.162)" style="display:block" id="S"/><path fill="#AFD5E0" d="M750.527-172.52c-2.856 6.832 153.036 310.917-59.97 264.614s1.1-278.504 4.916-287.632c3.816-9.128 19.234-11.375 34.437-5.019 15.203 6.356 24.433 18.909 20.617 28.037z" transform="rotate(-11.978 4080.432 -4797.177)" style="display:block" id="T"/><path fill="#CC348D" d="M745.232-224.137c-.304-28.44 22.505-51.741 50.945-52.045 28.44-.304 51.741 22.506 52.045 50.946.304 28.44-22.505 51.74-50.945 52.044-28.44.304-51.741-22.505-52.045-50.945z" transform="rotate(-1.297 27350.947 -45517.09)" style="display:block" id="U"/><path fill="#0084C2" d="M732.862-124.382c4.759-25.473 29.266-42.264 54.739-37.505s42.265 29.265 37.506 54.738-29.266 42.265-54.739 37.506-42.265-29.266-37.506-54.739z" transform="rotate(1.297 -24710.595 45790.804)" style="display:block" id="V"/><path fill="#AFD5E0" d="M750.527-172.52c-2.856 6.832 153.036 310.917-59.97 264.614s1.1-278.504 4.916-287.632c3.816-9.128 19.234-11.375 34.437-5.019 15.203 6.356 24.433 18.909 20.617 28.037z" transform="rotate(-2.593 14298.057 -22721.847)" style="display:block" id="W"/><path fill="#CC348D" d="M745.232-224.137c-.304-28.44 22.505-51.741 50.945-52.045 28.44-.304 51.741 22.506 52.045 50.946.304 28.44-22.505 51.74-50.945 52.044-28.44.304-51.741-22.505-52.045-50.945z" transform="rotate(-5.989 6934.078 -9712.103)" style="display:block" id="X"/><path fill="#0084C2" d="M732.862-124.382c4.759-25.473 29.266-42.264 54.739-37.505s42.265 29.265 37.506 54.738-29.266 42.265-54.739 37.506-42.265-29.266-37.506-54.739z" transform="rotate(5.989 -4300.438 9982.162)" style="display:block" id="Y"/><path fill="#AFD5E0" d="M750.527-172.52c-2.856 6.832 153.036 310.917-59.97 264.614s1.1-278.504 4.916-287.632c3.816-9.128 19.234-11.375 34.437-5.019 15.203 6.356 24.433 18.909 20.617 28.037z" transform="rotate(-11.976 4080.956 -4798.09)" style="display:block" id="Z"/><path fill="#FFF" d="M638.033-169.849c-41.207 112.587-110.385 302.331-170.99 469.348-11.827 32.594-21.429 51.144-71.04 55.59-84.82 7.601-163.41 13.29-252.041 16.588-15.917.592-33.228-11.412-36.908-42.619-14.53-123.235-31.678-302.891-47.058-481.524-2.828-32.845 23.041-69.646 70.892-70.091 112.027-1.042 349.193-14.511 455.264-10.36 34.205 1.339 62.292 34.624 51.881 63.068z" transform="rotate(-145 914.887 215.665) scale(.5)" style="display:block" id="aa"/><path fill="#FFF" d="M615.125 597.383S518.546 449.096 506.719 481.69c-11.827 32.594-61.105-131.047-110.716-126.601-84.82 7.601-163.41 13.29-252.041 16.588-15.917.592-33.228-11.412-36.908-42.619-14.53-123.235-31.678-302.891-47.058-481.524-2.828-32.845 23.041-69.646 70.892-70.091 112.027-1.042 349.193-14.511 455.264-10.36 34.205 1.339 62.292 34.624 51.881 63.068C596.826-57.262 923.151 9.427 923.151 9.427s83.359 177.85 82.666 179.759c-.334.919-390.692 408.197-390.692 408.197z" transform="rotate(-145 914.887 215.665) scale(.5)" style="display:block" id="ad"/><path fill="#FFF" d="M412.599 78.212c-6.132 3.04-7.257 9.111-7.45 10.036l-2.078 9.955c-.804 3.852 1.678 7.626 5.543 8.43l7.348 1.528c7.924 1.648 15.683-3.417 17.331-11.313.495-2.371 3.308-16.424 3.308-16.424s-16.193-6.083-24.002-2.212zm-14.702-3.734c3.902 5.915 3.593 9.268 3.279 11.761-.411 3.262-1.961 10.655-1.961 10.655-.863 4.124-4.939 6.767-9.102 5.904l-7.271-1.508c-8.179-1.696-13.434-9.638-11.738-17.74.661-3.158 3.897-16.189 3.897-16.189s19.186 1.492 22.896 7.117z" transform="rotate(-.773 44097.058 -72757.563)" style="display:block" id="ab"/><path fill="#FFF" d="M412.599 78.212c-6.132 3.04-7.257 9.111-7.45 10.036l-2.078 9.955c-.804 3.852 1.678 7.626 5.543 8.43l7.348 1.528c7.924 1.648 15.683-3.417 17.331-11.313.495-2.371 3.308-16.424 3.308-16.424s-16.193-6.083-24.002-2.212zm-14.702-3.734c3.902 5.915 3.593 9.268 3.279 11.761-.411 3.262-1.961 10.655-1.961 10.655-.863 4.124-4.939 6.767-9.102 5.904l-7.271-1.508c-8.179-1.696-13.434-9.638-11.738-17.74.661-3.158 3.897-16.189 3.897-16.189s19.186 1.492 22.896 7.117z" transform="rotate(-.773 44097.058 -72757.563)" style="display:block" id="ac"/><path fill="#FFF" d="M638.033-169.849c-41.207 112.587-110.385 302.331-170.99 469.348-11.827 32.594-21.429 51.144-71.04 55.59-84.82 7.601-163.41 13.29-252.041 16.588-15.917.592-33.228-11.412-36.908-42.619-14.53-123.235-31.678-302.891-47.058-481.524-2.828-32.845 23.041-69.646 70.892-70.091 112.027-1.042 349.193-14.511 455.264-10.36 34.205 1.339 62.292 34.624 51.881 63.068z" transform="rotate(-145 914.887 215.665) scale(.5)" style="display:block" id="ae"/><path fill="#FFF" d="M615.125 597.383S518.546 449.096 506.719 481.69c-11.827 32.594-61.105-131.047-110.716-126.601-84.82 7.601-163.41 13.29-252.041 16.588-15.917.592-33.228-11.412-36.908-42.619-14.53-123.235-31.678-302.891-47.058-481.524-2.828-32.845 23.041-69.646 70.892-70.091 112.027-1.042 349.193-14.511 455.264-10.36 34.205 1.339 62.292 34.624 51.881 63.068C596.826-57.262 923.151 9.427 923.151 9.427s83.359 177.85 82.666 179.759c-.334.919-390.692 408.197-390.692 408.197z" transform="rotate(-145 914.887 215.665) scale(.5)" style="display:block" id="ah"/><path fill="#FFF" d="M412.599 78.212c-6.132 3.04-7.257 9.111-7.45 10.036l-2.078 9.955c-.804 3.852 1.678 7.626 5.543 8.43l7.348 1.528c7.924 1.648 15.683-3.417 17.331-11.313.495-2.371 3.308-16.424 3.308-16.424s-16.193-6.083-24.002-2.212zm-14.702-3.734c3.902 5.915 3.593 9.268 3.279 11.761-.411 3.262-1.961 10.655-1.961 10.655-.863 4.124-4.939 6.767-9.102 5.904l-7.271-1.508c-8.179-1.696-13.434-9.638-11.738-17.74.661-3.158 3.897-16.189 3.897-16.189s19.186 1.492 22.896 7.117z" transform="translate(993.446 582.49)" style="display:block" id="af"/><path fill="#FFF" d="M412.599 78.212c-6.132 3.04-7.257 9.111-7.45 10.036l-2.078 9.955c-.804 3.852 1.678 7.626 5.543 8.43l7.348 1.528c7.924 1.648 15.683-3.417 17.331-11.313.495-2.371 3.308-16.424 3.308-16.424s-16.193-6.083-24.002-2.212zm-14.702-3.734c3.902 5.915 3.593 9.268 3.279 11.761-.411 3.262-1.961 10.655-1.961 10.655-.863 4.124-4.939 6.767-9.102 5.904l-7.271-1.508c-8.179-1.696-13.434-9.638-11.738-17.74.661-3.158 3.897-16.189 3.897-16.189s19.186 1.492 22.896 7.117z" transform="translate(993.446 582.49)" style="display:block" id="ag"/><path fill="#FFF" d="M638.033-169.849c-41.207 112.587-110.385 302.331-170.99 469.348-11.827 32.594-21.429 51.144-71.04 55.59-84.82 7.601-163.41 13.29-252.041 16.588-15.917.592-33.228-11.412-36.908-42.619-14.53-123.235-31.678-302.891-47.058-481.524-2.828-32.845 23.041-69.646 70.892-70.091 112.027-1.042 349.193-14.511 455.264-10.36 34.205 1.339 62.292 34.624 51.881 63.068z" transform="rotate(-145 914.887 215.665) scale(.5)" style="display:block" id="ai"/><path fill="#FFF" d="M615.125 597.383S518.546 449.096 506.719 481.69c-11.827 32.594-61.105-131.047-110.716-126.601-84.82 7.601-163.41 13.29-252.041 16.588-15.917.592-33.228-11.412-36.908-42.619-14.53-123.235-31.678-302.891-47.058-481.524-2.828-32.845 23.041-69.646 70.892-70.091 112.027-1.042 349.193-14.511 455.264-10.36 34.205 1.339 62.292 34.624 51.881 63.068C596.826-57.262 923.151 9.427 923.151 9.427s83.359 177.85 82.666 179.759c-.334.919-390.692 408.197-390.692 408.197z" transform="rotate(-145 914.887 215.665) scale(.5)" style="display:block" id="al"/><path fill="#FFF" d="M412.599 78.212c-6.132 3.04-7.257 9.111-7.45 10.036l-2.078 9.955c-.804 3.852 1.678 7.626 5.543 8.43l7.348 1.528c7.924 1.648 15.683-3.417 17.331-11.313.495-2.371 3.308-16.424 3.308-16.424s-16.193-6.083-24.002-2.212zm-14.702-3.734c3.902 5.915 3.593 9.268 3.279 11.761-.411 3.262-1.961 10.655-1.961 10.655-.863 4.124-4.939 6.767-9.102 5.904l-7.271-1.508c-8.179-1.696-13.434-9.638-11.738-17.74.661-3.158 3.897-16.189 3.897-16.189s19.186 1.492 22.896 7.117z" transform="rotate(-5 7434.471 -10806.925)" style="display:block" id="aj"/><path fill="#FFF" d="M412.599 78.212c-6.132 3.04-7.257 9.111-7.45 10.036l-2.078 9.955c-.804 3.852 1.678 7.626 5.543 8.43l7.348 1.528c7.924 1.648 15.683-3.417 17.331-11.313.495-2.371 3.308-16.424 3.308-16.424s-16.193-6.083-24.002-2.212zm-14.702-3.734c3.902 5.915 3.593 9.268 3.279 11.761-.411 3.262-1.961 10.655-1.961 10.655-.863 4.124-4.939 6.767-9.102 5.904l-7.271-1.508c-8.179-1.696-13.434-9.638-11.738-17.74.661-3.158 3.897-16.189 3.897-16.189s19.186 1.492 22.896 7.117z" transform="rotate(-5 7434.471 -10806.925)" style="display:block" id="ak"/><filter id="b" filterUnits="objectBoundingBox" x="0%" y="0%" width="100%" height="100%"><feComponentTransfer in="SourceGraphic"><feFuncA type="table" tableValues="1.0 0.0"/></feComponentTransfer></filter><filter id="f" filterUnits="objectBoundingBox" x="0%" y="0%" width="100%" height="100%"><feComponentTransfer in="SourceGraphic"><feFuncA type="table" tableValues="1.0 0.0"/></feComponentTransfer></filter><filter id="i" filterUnits="objectBoundingBox" x="0%" y="0%" width="100%" height="100%"><feComponentTransfer in="SourceGraphic"><feFuncA type="table" tableValues="1.0 0.0"/></feComponentTransfer></filter><filter id="m" filterUnits="objectBoundingBox" x="0%" y="0%" width="100%" height="100%"><feComponentTransfer in="SourceGraphic"><feFuncA type="table" tableValues="1.0 0.0"/></feComponentTransfer></filter><filter id="p" filterUnits="objectBoundingBox" x="0%" y="0%" width="100%" height="100%"><feComponentTransfer in="SourceGraphic"><feFuncA type="table" tableValues="1.0 0.0"/></feComponentTransfer></filter><filter id="t" filterUnits="objectBoundingBox" x="0%" y="0%" width="100%" height="100%"><feComponentTransfer in="SourceGraphic"><feFuncA type="table" tableValues="1.0 0.0"/></feComponentTransfer></filter><g style="display:block" id="g"><path fill="#FFF" d="M638.033-169.849c-41.207 112.587 498.002-704.754 437.397-537.737-11.827 32.594-744.654 15.526-794.265 19.972-84.82 7.601-1090.514 743.028-1179.146 746.325-15.917.593 94.439 209.272 90.759 178.065-14.53-123.236 483.127-306.895 467.747-485.528-1.182-13.726 402.119 68.144 410.47 55.978 11.633-16.946 32.039-29.524 59.893-29.783 112.027-1.042 349.193-14.511 455.264-10.36 34.205 1.339 62.291 34.624 51.881 63.068z" transform="rotate(-145 914.887 215.665) scale(.5)"/><path fill-opacity="0" stroke="#9DEEC7" stroke-width="6.5" d="M1230.584 803.67C1279.75 769.375 824.5 949.5 897.22 898.474c14.192-9.958 309.445 207.2 331.04 219.606 36.92 21.212 659.74 8.42 696.987 32.488 6.69 4.322 21.337-112.796 13.894-98.96-29.391 54.642-285.89-12.858-330.821 64.717-3.453 5.96-145.156-143.233-152.065-140.645-9.625 3.604-21.59 2.904-33.072-4.979-46.183-31.7-147.183-94.2-189.437-126.32-13.625-10.359-15.583-32.046-3.162-40.71z"/></g><g style="display:block" id="d"><path fill="#DB8D74" d="M521.5 303c-16.5 11-42 12.5-66 13.5s-53.834 22.53-51 52c2.5 26 27.5 43 54.5 43.5 30.012.556 61-2.5 100.5-24s36.5-55.5 23.5-77-45-19-61.5-8z" transform="rotate(-6 6207.043 -8631.536)"/><path fill-opacity="0" stroke="#3D3D3D" stroke-width="2" d="M1486.56 848.357c-15.26 12.664-40.464 16.822-64.228 20.325-23.764 3.503-51.184 28.034-45.285 57.046 5.204 25.596 31.844 39.89 58.748 37.565 29.906-2.584 60.405-8.863 97.441-34.374 37.036-25.51 30.499-59.011 15.323-79.034-15.177-20.024-46.74-14.193-62-1.528z"/></g><g style="display:block" id="n"><path fill="#FFF" d="M638.033-169.849c-41.207 112.587 498.002-704.754 437.397-537.737-11.827 32.594-744.654 15.526-794.265 19.972-84.82 7.601-1090.514 743.028-1179.146 746.325-15.917.593 94.439 209.272 90.759 178.065-14.53-123.236 483.127-306.895 467.747-485.528-1.182-13.726 402.119 68.144 410.47 55.978 11.633-16.946 32.039-29.524 59.893-29.783 112.027-1.042 349.193-14.511 455.264-10.36 34.205 1.339 62.291 34.624 51.881 63.068z" transform="rotate(-145 914.887 215.665) scale(.5)"/><path fill-opacity="0" stroke="#9DEEC7" stroke-width="6.5" d="M1230.584 803.67C1279.75 769.375 824.5 949.5 897.22 898.474c14.192-9.958 309.445 207.2 331.04 219.606 36.92 21.212 659.74 8.42 696.987 32.488 6.69 4.322 21.337-112.796 13.894-98.96-29.391 54.642-285.89-12.858-330.821 64.717-3.453 5.96-145.156-143.233-152.065-140.645-9.625 3.604-21.59 2.904-33.072-4.979-46.183-31.7-147.183-94.2-189.437-126.32-13.625-10.359-15.583-32.046-3.162-40.71z"/></g><g style="display:block" id="k"><path fill="#DB8D74" d="M521.5 303c-16.5 11-42 12.5-66 13.5s-53.834 22.53-51 52c2.5 26 27.5 43 54.5 43.5 30.012.556 61-2.5 100.5-24s36.5-55.5 23.5-77-45-19-61.5-8z" transform="rotate(-9.109 4402.023 -5457.243)"/><path fill-opacity="0" stroke="#3D3D3D" stroke-width="2" d="M1482.4 844.714c-14.55 13.473-39.492 18.991-63.03 23.778-23.54 4.787-49.589 30.77-42.125 59.419 6.585 25.276 33.96 38.104 60.7 34.323 29.721-4.203 59.834-12.126 95.432-39.609 35.598-27.482 27.253-60.578 11.013-79.749-16.24-19.17-47.44-11.636-61.99 1.838z"/></g><g style="display:block" id="u"><path fill="#FFF" d="M638.033-169.849c-41.207 112.587 498.002-704.754 437.397-537.737-11.827 32.594-744.654 15.526-794.265 19.972-84.82 7.601-1090.514 743.028-1179.146 746.325-15.917.593 94.439 209.272 90.759 178.065-14.53-123.236 483.127-306.895 467.747-485.528-1.182-13.726 402.119 68.144 410.47 55.978 11.633-16.946 32.039-29.524 59.893-29.783 112.027-1.042 349.193-14.511 455.264-10.36 34.205 1.339 62.291 34.624 51.881 63.068z" transform="rotate(-145 914.887 215.665) scale(.5)"/><path fill-opacity="0" stroke="#9DEEC7" stroke-width="6.5" d="M1230.584 803.67C1279.75 769.375 824.5 949.5 897.22 898.474c14.192-9.958 309.445 207.2 331.04 219.606 36.92 21.212 659.74 8.42 696.987 32.488 6.69 4.322 21.337-112.796 13.894-98.96-29.391 54.642-285.89-12.858-330.821 64.717-3.453 5.96-145.156-143.233-152.065-140.645-9.625 3.604-21.59 2.904-33.072-4.979-46.183-31.7-147.183-94.2-189.437-126.32-13.625-10.359-15.583-32.046-3.162-40.71z"/></g><g style="display:block" id="r"><path fill="#DB8D74" d="M521.5 303c-16.5 11-42 12.5-66 13.5s-53.834 22.53-51 52c2.5 26 27.5 43 54.5 43.5 30.012.556 61-2.5 100.5-24s36.5-55.5 23.5-77-45-19-61.5-8z" transform="translate(975 551.5)"/><path fill-opacity="0" stroke="#3D3D3D" stroke-width="2" d="M1496.5 854.5c-16.5 11-42 12.5-66 13.5s-53.834 22.53-51 52c2.5 26 27.5 43 54.5 43.5 30.012.556 61-2.5 100.5-24s36.5-55.5 23.5-77-45-19-61.5-8z"/></g><linearGradient id="bj" spreadMethod="pad" gradientUnits="userSpaceOnUse" x1="475" y1="-110.003" x2="566.067" y2="-38.825"><stop offset="0%" stop-color="#FFA75F"/><stop offset="50%" stop-color="#FFB78B"/><stop offset="100%" stop-color="#FFC7B8"/></linearGradient><linearGradient id="bf" spreadMethod="pad" gradientUnits="userSpaceOnUse" x1="475" y1="-110.003" x2="566.067" y2="-38.825"><stop offset="0%" stop-color="#FFA75F"/><stop offset="50%" stop-color="#FFB78B"/><stop offset="100%" stop-color="#FFC7B8"/></linearGradient><linearGradient id="bb" spreadMethod="pad" gradientUnits="userSpaceOnUse" x1="475" y1="-110.003" x2="566.067" y2="-38.825"><stop offset="0%" stop-color="#FFA75F"/><stop offset="50%" stop-color="#FFB78B"/><stop offset="100%" stop-color="#FFC7B8"/></linearGradient></defs><g clip-path="url(#am)"><g clip-path="url(#au)" style="display:block" transform="matrix(-1 0 0 1 1916 -23.5)"><g style="display:block"><path fill="#58CC02" d="M1230.485 803.743c49.265-34.368 132.015-92.243 204.643-143.202 2.002-1.405 3.906-2.71 5.76-3.878 4.8-3.029 9.266-5.15 14.243-5.77 6.718-.835 14.365 1.067 25.027 7.176 36.967 21.181 70.905 41.494 108.168 65.572 4.658 3.01 6.174 7.172 6.757 10.689.983 5.927-.897 11.436-3.946 17.277-3.012 5.768-6.232 11.558-9.996 18.377C1550.5 825.5 1502 911.25 1472.57 961.824c-4.698 8.072-10.57 15.176-16.747 21.73-4.887 5.184-14.269 14.656-20.551 18.658-11.597 7.387-24.773 4.218-34.089-2.01C1359.001 972 1261.5 906.5 1219.247 875.38c-8.648-6.368-11.976-19.711-10.496-25.73 2.25-9.15 4.91-17.376 8.08-24.263 3.17-6.887 7.327-17.231 13.654-21.644z"/><path stroke="#58CC02" stroke-width="6.5" d="M1230.485 803.743c49.265-34.368 132.015-92.243 204.643-143.202 2.002-1.405 3.906-2.71 5.76-3.878 4.8-3.029 9.266-5.15 14.243-5.77 6.718-.835 14.365 1.067 25.027 7.176 36.967 21.181 70.905 41.494 108.168 65.572 4.658 3.01 6.174 7.172 6.757 10.689.983 5.927-.897 11.436-3.946 17.277-3.012 5.768-6.232 11.558-9.996 18.377C1550.5 825.5 1502 911.25 1472.57 961.824c-4.698 8.072-10.57 15.176-16.747 21.73-4.887 5.184-14.269 14.656-20.551 18.658-11.597 7.387-24.773 4.218-34.089-2.01C1359.001 972 1261.5 906.5 1219.247 875.38c-8.648-6.368-11.976-19.711-10.496-25.73 2.25-9.15 4.91-17.376 8.08-24.263 3.17-6.887 7.327-17.231 13.654-21.644z" fill="none"/><path fill="#FFF" d="M1230.584 803.67c49.166-34.295 131.916-92.17 204.637-143.195 14.192-9.958 23.444-14.802 45.039-2.395 36.92 21.212 70.74 41.42 107.987 65.488 6.69 4.322 10.337 14.203 2.894 28.04-29.391 54.642-73.89 133.142-118.821 210.717-8.262 14.263-29.411 21.917-49.137 8.376-46.183-31.7-147.183-94.2-189.437-126.32-13.625-10.359-15.583-32.046-3.162-40.71z"/><path stroke="#9DEEC7" stroke-width="6.5" d="M1230.584 803.67c49.166-34.295 131.916-92.17 204.637-143.195 14.192-9.958 23.444-14.802 45.039-2.395 36.92 21.212 70.74 41.42 107.987 65.488 6.69 4.322 10.337 14.203 2.894 28.04-29.391 54.642-73.89 133.142-118.821 210.717-8.262 14.263-29.411 21.917-49.137 8.376-46.183-31.7-147.183-94.2-189.437-126.32-13.625-10.359-15.583-32.046-3.162-40.71z" fill="none"/></g><g mask="url(#av)" style="display:block"><g clip-path="url(#aw)"><path fill="#A175F9" d="M313.521 147.266a4.996 4.996 0 0 1-2.476-6.589l35.505-79.229c12.52-26.807 39.038-43.041 67.437-37.268 27.928 5.677 46.166 30.165 46.598 59.638l2.639 84.3a5.001 5.001 0 0 1-4.581 5.139c-10.243.872-36.172 2.236-68.29-2.346-33.359-4.759-65.34-18.373-76.832-23.645z" transform="rotate(-2 17467.06 -27716.914)" style="display:block"/><g style="display:block"><path fill="#A570FF" d="M1338.56 765.362c3.198-6.777 13.658-9.569 20.434-6.37 6.777 3.198 12.601 14.32 9.402 21.097 0 0-7.154 18.487-13.46 29.564-5.548 9.741-13.563 20.817-13.563 20.817-6.31 7.193-11.287 9.677-18.064 6.478-6.776-3.199-9.678-11.286-6.478-18.064 0 0 6.428-13.255 10.75-23.898 4.32-10.643 10.979-29.624 10.979-29.624z"/><path fill="#593F86" d="M1338.56 765.362s8.94-30.22 12.04-56.55l36.238 6.945c-1.242 25.693-17.723 62.777-17.723 62.777-3.064 1.446-13.544 3.84-20.4.603-6.296-2.971-9.374-10.707-10.155-13.775z"/><path fill="#FFC6B7" d="M1388.285 763.901c-1.1 5.437-6.4 8.952-11.836 7.85-5.436-1.1-8.951-6.399-7.85-11.835 1.1-5.436 6.4-8.95 11.836-7.85 5.436 1.101 8.951 6.4 7.85 11.835z"/><path fill="#593F86" d="m1371.338 706.12-52.203 20.217c-12.317 4.77-10.883 22.639 2.036 25.384l78.033 16.582c12.958 2.754 21.522-13.076 12.128-22.416l-39.994-39.768z"/><path fill="#FFC6B7" d="M1364.087 736.69c-6.095-5.788-8.692-9.736-13.36-10.68-4.581-.928-9.055 1.43-11.01 5.447 5 1.083 17.181 3.689 24.37 5.233z"/></g><path fill="#FFC6B7" d="m450.219 91.603 4.291.88c6.08 1.246 9.998 7.024 8.752 12.907-1.246 5.883-7.186 9.642-13.266 8.396l-4.291-.879c-6.08-1.246-9.999-7.024-8.752-12.907 1.247-5.883 7.186-9.643 13.266-8.397zm-33.5-59.289c24.256 5.058 40.846 27.56 38.541 52.277l-5.116 39.92c-2.524 13.181-12.859 21.445-25.152 20.885-12.066-.55-19.554-1.305-35.019-2.624-15.465-1.319-26.56-9.131-26.56-9.131-12.999-2.711-21.339-15.466-18.628-28.489a24.11 24.11 0 0 1 .936-3.302l13.566-37.444c8.519-23.515 32.991-37.189 57.432-32.092z" transform="rotate(2 -15619.475 28436.48)" style="display:block"/><path fill="#FFF" d="M412.599 78.212c-6.132 3.04-7.257 9.111-7.45 10.036l-2.078 9.955c-.804 3.852 1.678 7.626 5.543 8.43l7.348 1.528c7.924 1.648 15.683-3.417 17.331-11.313.495-2.371 3.308-16.424 3.308-16.424s-16.193-6.083-24.002-2.212zm-14.702-3.734c3.902 5.915 3.593 9.268 3.279 11.761-.411 3.262-1.961 10.655-1.961 10.655-.863 4.124-4.939 6.767-9.102 5.904l-7.271-1.508c-8.179-1.696-13.434-9.638-11.738-17.74.661-3.158 3.897-16.189 3.897-16.189s19.186 1.492 22.896 7.117z" transform="translate(993.446 582.49)" style="display:block"/><g mask="url(#ax)" style="display:block"><path fill="#3D3D3D" d="M1427.571 674.395c-.835 3.771-4.193 5.962-7.704 5.218-3.51-.744-5.708-4.292-5.012-7.91.696-3.62 1.9-9.772 1.9-9.772l12.948 2.075s-1.297 6.618-2.132 10.39zm-33.024-5.888c-.743 4.28-4.193 5.962-7.704 5.218-3.51-.744-5.649-4.519-5.012-7.91.653-3.477.66-2.688.66-2.688l12.504 2.142s.295-1.042-.448 3.238z"/></g><g mask="url(#ay)" style="display:block"><path fill="#A570FF" d="m1433.962 660.105-2.554 16.345-70.392-12.937 3.703-17.553 69.243 14.145z"/></g><path fill="#FFC6B7" d="M392.238 134.582a27.84 27.84 0 0 1 .557-7.168c3.172-15.155 18.137-24.871 33.426-21.7 4.08.846 7.06 2.538 9.233 4.487 5.034 4.515-43.121 26.188-43.216 24.381z" transform="translate(993.446 582.49)" style="display:block"/><path fill="#EE9583" d="M404.942 119.172c5.947-7.414 11.462-9.776 16.117-6.04.85.682.993 1.938.319 2.804a1.942 1.942 0 0 1-2.757.333c-2.469-1.981-5.872-.523-10.64 5.42a1.942 1.942 0 0 1-2.762.291 2.018 2.018 0 0 1-.277-2.808zm-7.456-4.456c3.258.67 6.439-1.349 7.106-4.511.667-3.162-3.654-11.853-3.654-11.853l-.905.784c-2.011 1.78-6.716 6.163-7.239 8.641-.667 3.162 1.434 6.268 4.692 6.939z" transform="rotate(2 -15784.73 28850.68)" style="display:block"/><path fill="#A570FF" d="M317.487 151.331c14.939-40.032 33.041-127.467 89.887-122.518.776.068 3.902.908 4.362 1.656 6.887 11.194-19.389 95.858-23.92 117.252-.547 2.583-2.975 3.862-5.614 3.912-18.096.341-50.479.01-64.715-.302zM428.486 34.052c17.261 6.726 29.208 23.333 28.949 47.181l-24.047-5.143c-19.329-4.022-23.631-20.569-23.492-40.632l-7.272-6.423c8.329-.365 18.488 2.143 25.862 5.017z" transform="rotate(2 -15619.475 28436.48)" style="display:block"/></g></g><g mask="url(#az)" style="display:block"><g clip-path="url(#aA)"><path fill="#E6A000" d="M0-59.292c32.723 0 59.292 26.569 59.292 59.292S32.723 59.292 0 59.292-59.292 32.723-59.292 0-32.723-59.292 0-59.292z" transform="matrix(.38973 .12663 -.0618 .19021 1493.225 685.26)" style="display:block"/><g style="display:block"><path fill="#FFC700" d="M1479.054 669.314c9.753-2.106 24.531 2.008 33.007 9.188 8.475 7.18 7.44 14.708-2.315 16.814-9.753 2.106-24.531-2.007-33.007-9.188-8.475-7.18-7.439-14.708 2.315-16.814z"/><path fill="#FFE700" d="M1506.04 676.633a28.068 28.068 0 0 1 3.133 2.286c1.821 1.542 3.122 3.104 3.912 4.604.165.313-.197.356-.652.456-4.6 1.008-22.786 4.933-25.267 5.457-.34.072-.928.213-1.803-.188-2.292-1.052-4.25-2.435-5.976-3.898a19.501 19.501 0 0 1-2.538-2.554c-.142-.175-.415-.45.61-.672 4.43-.957 20.728-4.438 26.91-5.773.817-.177 1.297.045 1.672.282zm-24.7-5.462c5.383-1.163 12.583-.078 18.92 2.509.45.184 1.581.769.25 1.082-1.333.313-21.493 4.574-23.888 5.091-1.403.303-1.725-.438-1.795-.671-1.11-3.721 1.123-6.847 6.512-8.011z"/></g><path fill="#E6A000" d="M0-59.292c32.723 0 59.292 26.569 59.292 59.292S32.723 59.292 0 59.292-59.292 32.723-59.292 0-32.723-59.292 0-59.292z" transform="matrix(.4813 .24524 -.13166 .2584 1514.025 734.632)" style="display:block"/><g style="display:block"><path fill="#FFC700" d="M1499.117 709.767c13.434-1.32 31.865 7.007 41.167 18.597 9.302 11.59 5.953 22.057-7.48 23.377-13.434 1.32-31.865-7.007-41.167-18.597-9.302-11.59-5.953-22.057 7.48-23.377z"/><path fill="#FFE700" d="M1532.827 724.7a34.675 34.675 0 0 1 3.535 3.763c1.998 2.49 3.304 4.919 3.953 7.173.136.47-.354.47-.98.534-6.34.643-31.386 3.102-34.8 3.422-.468.043-1.283.143-2.332-.573-2.75-1.876-4.97-4.164-6.865-6.525-1.101-1.373-1.992-2.727-2.679-4.043-.142-.271-.43-.707.982-.846 6.102-.6 28.537-2.752 37.053-3.588 1.125-.111 1.7.283 2.133.682zm-31.18-11.92c7.415-.728 16.636 2.03 24.322 6.762.546.337 1.887 1.356.046 1.572-1.841.217-29.584 2.815-32.882 3.14-1.932.19-2.162-.914-2.193-1.255-.487-5.449 3.284-9.489 10.706-10.218z"/></g><path fill="#E6A000" d="M0-59.292c32.723 0 59.292 26.569 59.292 59.292S32.723 59.292 0 59.292-59.292 32.723-59.292 0-32.723-59.292 0-59.292z" transform="matrix(.6486 .38971 -.22476 .37406 1500.135 794.898)" style="display:block"/><g style="display:block"><path fill="#FFC700" d="M1482.475 757.503c19.29-1.18 44.282 12.171 55.821 29.82 11.54 17.65 5.256 32.914-14.034 34.095-19.29 1.18-44.282-12.171-55.821-29.82-11.54-17.65-5.256-32.914 14.034-34.095z"/><path fill="#FFE700" d="M1528.227 781.484a46.427 46.427 0 0 1 4.478 5.761c2.48 3.791 3.983 7.453 4.578 10.82.125.703-.572.674-1.472.732-9.107.587-45.072 2.785-49.973 3.061-.67.038-1.843.139-3.23-.98-3.636-2.926-6.46-6.434-8.81-10.029-1.367-2.09-2.437-4.14-3.222-6.123-.162-.409-.509-1.069 1.52-1.193 8.761-.536 40.97-2.43 53.198-3.18 1.616-.098 2.376.517 2.933 1.131zm-42.595-19.386c10.65-.651 23.358 3.948 33.597 11.378.727.528 2.484 2.11-.165 2.324-2.648.214-42.467 2.464-47.203 2.754-2.775.17-2.942-1.473-2.935-1.979.099-8.074 6.049-13.825 16.706-14.477z"/></g><path fill="#E6A000" d="M0-59.292c32.723 0 59.292 26.569 59.292 59.292S32.723 59.292 0 59.292-59.292 32.723-59.292 0-32.723-59.292 0-59.292z" transform="matrix(.68536 .4799 -.32116 .45866 1420.606 831.336)" style="display:block"/><g style="display:block"><path fill="#FFC700" d="M1406.454 784.874c22.482-1.404 49.164 15.042 59.597 36.735 10.432 21.692.663 40.415-21.819 41.82-22.482 1.404-49.164-15.043-59.597-36.735-10.432-21.692-.663-40.416 21.819-41.82z"/><path fill="#FFE700" d="M1455.376 814.418a47.284 47.284 0 0 1 4.228 7.082c2.24 4.66 3.377 9.157 3.511 13.292.028.863-.772.826-1.822.895-10.618.7-52.534 3.315-58.242 3.643-.78.044-2.152.165-3.572-1.21-3.72-3.602-6.406-7.914-8.531-12.332-1.236-2.57-2.135-5.088-2.716-7.525-.12-.502-.412-1.313 1.952-1.46 10.21-.638 47.738-2.89 61.989-3.78 1.883-.118 2.66.639 3.203 1.395zm-46.03-23.896c12.412-.776 26.34 4.9 36.949 14.044.754.65 2.524 2.596-.572 2.852-3.095.257-49.473 2.927-54.992 3.272-3.235.202-3.157-1.815-3.067-2.436 1.442-9.91 9.261-16.956 21.683-17.732z"/></g><path fill="#E6A000" d="M0-59.292c32.723 0 59.292 26.569 59.292 59.292S32.723 59.292 0 59.292-59.292 32.723-59.292 0-32.723-59.292 0-59.292z" transform="matrix(.81915 .57358 -.43018 .61436 1303.57 843.462)" style="display:block"/><g style="display:block"><path fill="#FFC700" d="M1289.189 784.783c28.033-3.338 60.076 16.103 71.57 43.422 11.493 27.32-1.915 52.173-29.948 55.511-28.033 3.339-60.076-16.102-71.57-43.422-11.493-27.32 1.915-52.173 29.948-55.511z"/><path fill="#FFE700" d="M1347.981 819.638a53.725 53.725 0 0 1 4.773 8.863c2.47 5.869 3.577 11.603 3.463 16.936-.023 1.113-1.016 1.12-2.325 1.28-13.243 1.624-65.508 7.844-72.623 8.654-.973.11-2.685.36-4.357-1.32-4.378-4.402-7.424-9.79-9.765-15.355-1.362-3.236-2.308-6.43-2.865-9.538-.115-.64-.423-1.669 2.524-2.02 12.733-1.516 59.52-6.969 77.29-9.085 2.347-.28 3.261.645 3.885 1.585zm-55.58-27.754c15.475-1.843 32.399 4.545 44.963 15.641.892.788 2.96 3.183-.904 3.724-3.864.542-61.677 7.135-68.56 7.954-4.032.48-3.8-2.13-3.645-2.939 2.463-12.903 12.658-22.536 28.146-24.38z"/></g></g></g><path stroke="#9DEEC7" stroke-width="13" d="M396.003 355.089c-84.82 7.601-163.41 13.29-252.041 16.588-15.917.592-33.228-11.412-36.908-42.619-14.53-123.235-31.678-302.891-47.058-481.524-2.828-32.845 23.041-69.646 70.892-70.091 112.027-1.042 349.193-14.511 455.264-10.36" fill="none" transform="rotate(-145 914.887 215.665) scale(.5)" style="display:block"/></g><g clip-path="url(#aM)" style="display:block" transform="matrix(-1 0 0 1 1976 -43.5)"><g style="display:block"><path stroke-linecap="round" stroke-miterlimit="10" stroke="#CC348D" stroke-width="23" d="M1750.909 386.064c-.686-15.146 30.473-14.353 47.564 3.638" fill="none"/><path fill="#C6775C" d="M1766.056 385.378c.38 8.366-6.096 15.454-14.461 15.833-8.365.379-15.454-6.095-15.832-14.46-.38-8.366 6.094-15.455 14.46-15.834 8.365-.379 15.455 6.096 15.833 14.461z"/><path fill="#5EC6FF" d="M1784.66 417.353c-3.399 9.292-18.7 12.234-34.174 6.572-15.475-5.661-25.264-17.784-21.865-27.075 3.4-9.291 19.547-24.983 38.389-18.09 18.979 6.944 21.05 29.302 17.65 38.593z"/><path fill="#0084C2" d="M1784.66 417.353c-3.399 9.292-18.7 12.234-34.174 6.572-15.475-5.661-25.264-17.784-21.865-27.075 3.4-9.291 18.7-12.234 34.175-6.572 15.475 5.661 25.263 17.784 21.864 27.075z"/><path fill="#FFCC76" d="M1762.796 390.278c-8.779-3.212-17.498-3.652-24.023-1.738-.139 5.74-2.77 10.832-3.49 12.317-.053.113-.114.22-.165.335-2.59 5.99.167 12.946 6.158 15.535 4.34 1.876 9.177.936 12.503-1.997a13.187 13.187 0 0 0 5.816 4.894c6.721 2.905 14.526-.188 17.43-6.91 1.413-3.265 3.517-6.87 4.885-8.782-3.823-5.475-10.606-10.54-19.114-13.654z"/></g><g mask="url(#aN)" style="display:block"><path stroke-linecap="round" stroke-miterlimit="10" stroke="#FFCC76" stroke-width="4.148" d="M1808.974 313.028c-15.332 5.034-37.303 26.394-28.544 31.79 8.758 5.397 20.778-23.926 44.354-15.588m-19.552 7.313c-11.942 5.3-21.077 18.742-34.044 38.193m35.56-32.213c-5.473 4.707-8.323 7.086-15.153 16.17-6.83 9.083-15.23 17.75-19.62 29.751" fill="none"/></g><path fill="#0084C2" d="M732.862-124.382c4.759-25.473 29.266-42.264 54.739-37.505s42.265 29.265 37.506 54.738-29.266 42.265-54.739 37.506-42.265-29.266-37.506-54.739z" transform="rotate(1.297 -24710.595 45790.804)" style="display:block"/><g mask="url(#aO)" style="display:block"><path fill="#006AAD" d="M1856.479 507.3c-17.232-.492-34.38-2.072-50.534-17.665l-6.933.844c19.439 20.013 40.238 21.841 51.742 21.6a47.202 47.202 0 0 0 5.725-4.778z"/><path fill="#C6775C" d="M1790.26 419.212c3.526-16.243 19.503-26.593 35.768-23.172 16.339 3.438 26.8 19.47 23.363 35.81l-7.5 35.657c-.855 4.056-3.533 7.499-7.275 9.282-15.416 7.346-27.53 12.499-32.105 14.406a3.209 3.209 0 0 1-3.52-.683c-8.666-8.69-14.116-18.908-16.595-24.224-1.092-2.342-1.277-4.975-.729-7.501l8.592-39.575z"/><path stroke-linecap="round" stroke="#FFF" stroke-width="20.813" d="m1791.691 461.036 2.12-8.554m21.046 13.956 1.31-6.233" fill="none"/><path stroke-linecap="round" stroke="#3D3D3D" stroke-width="9.4" d="M1813.056 463.903s-.966 2.554-1.024 5.085m-19.322-11.16s-.328 3.306-1.584 5.642" fill="none"/><path fill="#FFF" d="M1787.443 461.544c1.763.776 2.754 3.34 1.85 5.068-3.725 7.485-9.563-7.275-1.85-5.068zm19.855 6.562c2.073.471 3.518 2.377 2.822 4.598-2.39 4.82-6.552-3.79-2.822-4.598z"/><path fill="#C6775C" d="M1794.38 449.915a6.295 6.295 0 1 1 12.277 2.778 6.295 6.295 0 0 1-12.278-2.778z"/></g><path stroke-linecap="round" stroke="#3D3D3D" stroke-width="46.998" d="M806.508-160.321c-17.756 5.031-37.78.251-40.643-7.859" fill="none" transform="translate(1032.62 588.688)" style="display:block"/><path fill="#FFF" d="m756.151-159.828.792-1.802a5.805 5.805 0 0 1 10.63 4.672l-.792 1.802a5.805 5.805 0 0 1-10.63-4.672z" transform="translate(1032.745 588.813)" style="display:block"/><path fill="#CC348D" d="M745.232-224.137c-.304-28.44 22.505-51.741 50.945-52.045 28.44-.304 51.741 22.506 52.045 50.946.304 28.44-22.505 51.74-50.945 52.044-28.44.304-51.741-22.505-52.045-50.945z" transform="rotate(-1.297 27350.947 -45517.09)" style="display:block"/><path stroke-linecap="round" stroke-linejoin="round" stroke="#CC348D" stroke-width="23" d="M825.772-199.387s8.413 6.579 6.797 11.61c-3.893 12.125-34.673 15.5-34.673 15.5" fill="none" transform="rotate(-1.297 27350.947 -45517.09)" style="display:block"/><g mask="url(#aP)" style="display:block"><path fill="#0084C2" d="M1763.54 349.733c3.013-24.765 19.124-46.29 60.928-47.554 41.805-1.264 80.576 14.673 72.723 39.76-6.114 19.535-27.606 37.76-74.102 34.923-44.352-2.707-59.866-24.516-59.548-27.129z"/><path stroke="#00448E" stroke-width="11" d="M1763.54 349.733c3.013-24.765 19.124-46.29 60.928-47.554 41.805-1.264 80.576 14.673 72.723 39.76-6.114 19.535-27.606 37.76-74.102 34.923-44.352-2.707-59.866-24.516-59.548-27.129z" fill="none"/></g><g style="display:block"><path stroke-linecap="round" stroke-linejoin="round" stroke="#0084C2" stroke-width="20" d="M1823.327 325.894s-30.027-20.759-37.805-31.818c5.48-10.89 22.39-26.278 32.165-36.007" fill="none"/><path stroke-linecap="round" stroke-linejoin="round" stroke="#CC348D" stroke-width="14" d="M1839.306 252.31c-.402-5.991-2.84-13.432-5.69-17.361" fill="none"/></g><g style="display:block"><path stroke-linecap="round" stroke-linejoin="round" stroke="#0084C2" stroke-width="20" d="M1823.577 325.888s-55.775.067-100.14-16.377" fill="none"/><path stroke-linecap="round" stroke-linejoin="round" stroke="#CC348D" stroke-width="14" d="M1704.754 294.389c-2.1 2.705-7.076 10.34-9.631 16.266" fill="none"/></g><g style="display:block"><path stroke-linecap="round" stroke-linejoin="round" stroke="#DAAF83" stroke-width="5" d="m1860.079 434.613-57.48-16.735m50.748 25.92-50.884-25.463" fill="none"/><path stroke-linecap="round" stroke-linejoin="round" stroke="#C6775C" stroke-width="9" d="m1828.701 425.572-11 4.272" fill="none"/><path fill="#C6775C" d="m1829.3 430.225 5.52-2.226a8.535 8.535 0 0 0 4.725-11.107l-1.97-4.884a8.534 8.534 0 0 0-11.107-4.724l-5.52 2.227a8.534 8.534 0 0 0-4.724 11.107l1.97 4.882a8.536 8.536 0 0 0 11.106 4.725z"/></g></g><g clip-path="url(#bc)" style="display:block" transform="matrix(-1 0 0 1 1916 -23.5)"><g style="display:block"><path stroke-linecap="round" stroke-linejoin="round" stroke="#FFC6B7" stroke-width="12" d="M1454.464 576.682c3.326-6.229 1.095-12.653-1.827-18.773m-12.017 5.353c6.372 3.139 11.171 8.391 12.957 13.95m-18.053-2.08c9.782 2.031 14.268 9.178 16.45 12.65m-6.547 7.662s8.502-5.57 18.599-7.012" fill="none"/><path stroke-linecap="round" stroke-linejoin="round" stroke="#FFC6B7" stroke-width="36" d="M1485.476 578.91c-10.3-1.115-15.16-1.45-24.188-1.222" fill="none"/><path stroke-linecap="round" stroke-linejoin="round" stroke="#33E3FF" stroke-width="36" d="M1503.46 581.491c-8.713-2.176-20.127-3-29.148-3.414" fill="none"/></g><path fill="#33E3FF" d="M628.903-118.352c6.448-30.698-36.137-62.105-62.521-44.25-3.385 1.277-38.54 26.709-38.54 26.709-12.586 8.974 85.715 94.551 90.674 68.96 0 0 9.191-48.581 10.387-51.419z" transform="rotate(.462 -69753.853 122048.62)" style="display:block"/><path stroke-linecap="round" stroke="#393939" stroke-width="27" d="m683.25 34.5 4.25 3.5" fill="none" transform="rotate(-2.14 15649.416 -25638.783)" style="display:block"/><path stroke-linecap="round" stroke-linejoin="round" stroke="#393939" stroke-width="23" d="m613.75 94-8.25 3.75" fill="none" transform="rotate(-.379 82900.502 -146054.506)" style="display:block"/><path fill="#FFC7B8" d="M552.811-154.957c-14.873-8.982-34.962-11.237-52.179-1.891l-28.256 15.339a51.11 51.11 0 0 0-25.616 34.316l-7.98 37.63C434.57-49.714 440-30 458.986-17.428 477.972-4.856 510.5 12 528.501 43.852c6.897 12.204 42.974 11.603 54.934 7.15l38.691-9.376A38.335 38.335 0 0 0 651.93 8.839l6.319-51.72c-.568-6.318-6.973-19.296-11.519-26.102C621-107.5 590-132.5 552.811-154.957z" transform="rotate(-.059 564644.142 -969581.241)" style="display:block"/><path fill="#EE9583" d="M523.147-6.062c2.236 3.145 5.699 3.51 8.324 1.644 2.625-1.866 3.418-5.255 1.182-8.401-2.236-3.145-9.483-4.798-10.202-4.287-.718.51-1.54 7.899.696 11.044z" transform="rotate(-.059 564174.745 -969441.963)" style="display:block"/><g style="display:block"><path fill="#FFF" d="M1487.851 541.995c-7.354-5.464-19.612-5.253-26.031.447-5.303 4.709-4.726 11.586 1.349 16.1l9.104 6.763c7.354 5.463 19.612 5.252 26.031-.449 5.303-4.708 4.727-11.585-1.348-16.098l-9.105-6.763zm32.844-20.017c-7.326-5.443-18.69-4.573-25.155 1.923-6.239 6.27-5.578 15.462 1.494 20.715l8.328 6.186c7.326 5.443 18.693 4.572 25.156-1.923 6.24-6.272 5.576-15.462-1.495-20.715l-8.328-6.186z"/><path fill="#FFC7B8" d="M1534.783 532.865c-5.745 3.886-13.079 16.126-15.54 25.234l17.955-12.145c1.59-5.982 3.33-16.974-2.415-13.089z"/><path fill="#EE9583" d="M1528.991 551.18a2.223 2.223 0 0 0-2.05 2.38c.168 2.258-.059 4.432-.902 6.434-.834 1.98-2.33 3.928-4.914 5.666a2.219 2.219 0 0 0-.602 3.08 2.22 2.22 0 0 0 3.082.605c3.243-2.182 5.329-4.786 6.527-7.626 1.187-2.818 1.442-5.736 1.239-8.488a2.221 2.221 0 0 0-2.38-2.05z"/><path fill="#4B4B4B" d="M1505.302 533.167a4.246 4.246 0 0 0 1.728 3.397c1.87 1.39 4.487 1.035 5.843-.79a4.07 4.07 0 0 0 .358-.579l4.617 3.279c3.307 2.348 3.665 6.576.802 9.454-2.876 2.89-7.914 3.322-11.238.961l-5.614-3.986c-3.307-2.349-3.667-6.576-.804-9.453 1.166-1.173 2.689-1.941 4.308-2.283zm-17.06 14.024c.16.101.315.21.467.323l4.821 3.58c3.56 2.644 3.938 6.664.892 9.456-2.65 2.43-7.822 2.546-10.92.246l-6.927-5.146c-2.954-2.193-3.27-5.528-.741-7.846 1.126-1.032 2.636-1.71 4.279-2.03a4.503 4.503 0 0 0 1.782 2.881c1.925 1.43 4.558 1.148 5.878-.629a3.75 3.75 0 0 0 .468-.835z"/></g><g mask="url(#bd)" style="display:block"><g clip-path="url(#be)" transform="rotate(6.004 1558.51 572.141) scale(1.00759)"><g style="display:block"><path fill="#FFC7B8" d="M1531.072 472.95c5.547 1.538 10.722-2.436 11.558-8.872.835-6.437-2.985-12.9-8.532-14.438-5.547-1.538-10.722 2.436-11.557 8.872-.836 6.437 2.985 12.9 8.531 14.438z"/><path fill="#0084C2" d="M1476.51 610.578s56.633 59.035 75.738 52.288l84.852-53.299c15.31-5.119 16.846-112.947 8.034-122.726l-46.156-33.193-.192-.139-6.05-4.349-7.1 111.687-109.126 49.731z"/><path fill="#33E3FF" d="M1599.227 458.011c-6.193-5.901-32.26-23.432-32.26-23.432a89.37 89.37 0 0 1 2.122 5.235c15.96 43.123 4.178 106.142 2.463 109.162-15.069 26.531-97.039 53.239-102.455 51.97l17.197 15.416c27.382 2.193 90.182-24.41 102.765-40.754 10.975-14.252 13.347-94.227 10.168-117.597z"/></g><path fill="url(#bf)" d="M542.287-73.808a20.443 20.443 0 0 0-21.744-1.686l-66.346 34.981c-4.69 2.473-5.503 8.833-1.52 12.333 4.619 4.057 18.803 15.086 20.93 16.441 2.539 1.618 3.641 4.492 3.329 7.164L455.999 7.558C439.513-4.27 412.084-46.23 416.293-66.078c0 0 3.246-69.461 16.083-76.429 0 0 91.517-46.369 107.436-34.95l29.674 16.915 1.147.654-.456 92.437a8.424 8.424 0 0 1-7.201 8.168c-.631.092-20.689-14.525-20.689-14.525z" transform="rotate(-6.1 6395.181 -8836.617)" style="display:block"/></g></g><path fill="#FF9500" d="M470.631-93.866c13.111-.062 20.667-10.772 20.606-23.94-.06-13.17-7.714-23.809-20.826-23.748-13.11.061-21.876 10.777-21.815 23.946.061 13.169 8.924 23.803 22.035 23.742zm-6.462 34.905c14.866-.234 26.717-12.583 26.469-27.582-.248-15-12.5-26.97-27.367-26.735-14.866.235-26.716 12.583-26.468 27.581.248 15 12.5 26.97 27.366 26.736z" transform="rotate(34.276 28.996 1781.227)" style="display:block"/><path fill="#33E3FF" d="M637.81-65.136C633.75-56 626.831-54.6 622.786-55.983c-5.465-1.15-9.63-7.729-9.02-16.257 1.234-17.26 7.984-33.01 13.266-43.535 4.773-9.512 15.718-11.975 22.54-8.794 6.779 3.161 12.82 11.1 7.698 20.625-6.02 11.194-15.4 29.672-19.46 38.808z" transform="rotate(.462 -69889.127 122076.727)" style="display:block"/><g style="display:block"><path fill="#FFC6B7" d="M1645.5 454.01c-4.67-8.933-14.494-12.398-24.902-7.246-9.172 4.54-13.626 14.85-8.496 24.245 4.68 8.572 14.55 12.311 24.611 6.973 10.549-5.594 13.458-15.04 8.788-23.973z"/><path stroke-linecap="round" stroke="#EE9583" stroke-width="3.796" d="M1626.763 456.704c3.22 1.804 6.031 5.876 5.596 8.5" fill="none"/><path stroke-linecap="round" stroke-linejoin="round" stroke="#FFC6B7" stroke-width="12" d="M1621.805 451.411c.582-4.303-.479-7.93-1.442-12.114m17.78-5.972c-4.849 4.283-7.421 11.254-7.744 14.944m19.63-7.67c-3.872 2.324-11.439 9.358-12.27 15.505m16.962-1.985c-4.855.463-10.511 6.13-13.113 10.867" fill="none"/></g></g><g clip-path="url(#bn)" style="display:block" transform="matrix(-1 0 0 1 1976 -43.5)"><path fill="#58CC02" d="M303.202-41.464c15.252 94.999-16.572 140.035-80.655 155.537-84.448 20.428-144.155-35.09-168.05-85.71C36.399-9.976 31.079-73.407 31.088-81.126c-2.005-42.682 9.193-88.358 47.767-105.679 17.566-7.887 35.658-10.675 49.673-5.425 21.72 8.136 30.242 13.944 38.156 17.58 4.337 1.994 127.694 78.223 136.518 133.186zm15-4c15.252 94.999-31.572 144.035-95.655 159.537-84.448 20.428-134.794-43.146-151.05-96.71C16-165.5 158.77-178.287 166.684-174.649a21.634 21.634 0 0 0 13.876 1.443c13.755-3.168 29.59-13.227 52.501-23.967 28.992-13.58 72.088 2.238 71.426 41.505 0 0 4.891 55.241 13.715 110.204z" transform="rotate(-.219 157120.03 -271146.965)" style="display:block"/><path fill="#58CC02" d="M194.4-10.921c41.197 33.255 100.112 36.257 145.734 6.363 45.621-29.893 66.603-85.246 52.867-136.495-2.857-10.667-15.283-15.388-24.539-9.323L195.78-37.227c-9.256 6.065-9.954 19.384-1.38 26.306z" transform="rotate(.122 -280166.595 489253.465)" style="display:block"/><path fill="#58CC02" d="M198.976.515c-26.37 45.909-80.206 70.027-133.554 58.669C12.074 47.826-27.518 3.817-33.258-48.93c-1.195-10.977 8.679-19.874 19.504-17.569L188.17-23.511C198.993-21.206 204.464-9.04 198.976.515z" transform="rotate(-.558 61720.84 -105941.734)" style="display:block"/><path stroke-linecap="round" stroke-linejoin="round" stroke="#F49000" stroke-width="35" d="M256.25 102.5 260 74.75" fill="none" transform="rotate(.823 -40669.765 72591.342)" style="display:block"/><path stroke-linecap="round" stroke-linejoin="round" stroke="#F49000" stroke-width="35" d="m138 147-27-7.75" fill="none" transform="rotate(1.863 -17644.258 32233.705)" style="display:block"/><g mask="url(#bp)" style="display:block"><path fill="#89E219" d="M1233.865 618.225c-.726 8.518-7.142 15.878-16 18.09-8.857 2.212-17.953-1.274-22.56-8.46-.957-1.497-.098-3.491 1.7-3.94l33.7-8.012c1.796-.447 3.311.549 3.16 2.322zm-58.157 13.514c-2.318 8.228-10.005 14.231-19.122 14.712-9.117.481-17.394-4.679-20.564-12.617-.66-1.652.561-3.447 2.41-3.544l34.508-1.822c1.85-.098 3.25 1.56 2.768 3.271zm34.816 19.375c-1.524 8.35-8.606 15.018-17.634 16.368-9.03 1.348-17.76-2.956-21.671-10.496-.814-1.567.23-3.458 2.062-3.732l34-5.24c1.832-.275 3.56 1.362 3.243 3.1zm23.395-68.223c-22.286 1.16-42.17-11.085-51.8-29.695-8.183.396-14.115.674-17.786.854-6.521.325-11.863.597-16.014.814-5.745 19.457-18.629 33.188-36.096 34.401-20.578 1.43-40.992-22.595-43.227-52.775-1.687-22.786-1.877-34.035-.18-46.274 1.819-13.135 6.78-22.57 14.287-29.37.504-11.905 9.507-21.897 13.899-22.1 2.471-.115 2.427.671 2.155 14.008 4.436-17.794 13.223-23.396 17.247-26.542 5.041-3.936 11.056-5.953 11.446 2.27.198 3.912 3.536 47.304 28.319 48.285 2.34.093 3.84.1 6.79-.183 15.387-1.481 44.629-33.862 56.015-47.188 7.085-8.29 11.606-6.715 13.353-4.067 3.977 6.01 5.403 12.302 4.49 18.686l9.513-11.897c1.873-2.33 5.472-2.18 7.119.309 4.285 6.472 6.044 14.12 5.274 21.605 14.76 9.188 24.934 25.21 25.914 43.893l1.414 27.094c1.587 30.375-21.753 56.286-52.132 57.872z"/></g><g style="display:block"><path fill="#F49000" d="M1189.02 551.738c-.554-10.608-9.601-18.756-20.208-18.202-10.01.522-17.939 8.644-18.22 18.664l-.716 29.308c-.336 11.934 9.583 21.617 21.506 20.994 11.277-.588 19.941-10.208 19.353-21.485l-1.715-29.28z"/><path fill="#B16900" d="M1182.199 553.69c.264-8.204-6.546-14.877-14.742-14.45-7.274.38-13.045 6.268-13.279 13.548l-.8 28.19c-.264 8.204 6.545 14.877 14.742 14.45 7.274-.38 13.045-6.268 13.279-13.548l.8-28.19z"/><path fill="#FFB8D1" d="M1181.95 564.927c-.169.005-.338.011-.506.02-12.636.66-22.345 11.439-21.685 24.074.083 1.584.325 3.121.71 4.598a13.93 13.93 0 0 0 7.656 1.808c7.274-.38 13.045-6.267 13.279-13.548l.545-16.952z"/><path fill="#FFC200" d="M1137.606 554.63c-.137.74.297 1.46 1.004 1.722l10.196 3.072 41.29-6.08c.925-.151 1.528-1.061 1.248-1.956-3.695-11.79-15-20.189-27.91-19.515-13.066.681-23.548 10.433-25.828 22.757z"/><path fill="#FFDE00" d="M1167.179 543.421c2.092.82 4.394-.287 5.167-2.368.774-2.081-.24-4.54-2.368-5.168-4.155-1.226-9.28-1.192-13.39.606-2.033.89-3.01 3.213-2.153 5.26.858 2.047 3.2 2.978 5.26 2.154 1.769-.707 5.391-1.303 7.484-.484z"/></g><g style="display:block"><path fill="#FFF" d="M1267.547 522.808c1.103 21.132-15.133 39.156-36.264 40.259-21.131 1.103-39.155-15.132-40.259-36.263l-1.124-21.522c-1.103-21.132 15.133-39.156 36.264-40.259 21.131-1.103 39.155 15.132 40.259 36.263l1.124 21.522zM1138 529.572c1.103 21.131-11.138 38.948-27.343 39.793-16.202.846-30.233-15.597-31.337-36.729l-1.124-21.522c-1.103-21.131 11.14-38.947 27.341-39.792 16.205-.846 30.235 15.597 31.338 36.729l1.125 21.52z"/><path fill="#4B4B4B" d="M1103.595 529.424c.607 9.893 7.446 17.53 15.278 17.052 7.823-.488 13.679-8.906 13.062-18.8l-1.177-19.116c-12.604 6.282-20.173-10.689-11.59-16.833-.659-.273-2.568-.434-3.689-.22-9.66 1.778-13.741 11.327-12.795 23.172.76 9.494.91 14.745.91 14.745zm94.89-5.48c.177 9.921 8.365 17.815 18.286 17.639 9.911-.177 17.805-8.365 17.629-18.276l-.337-19.152c-13.588 5.157-18.988-9.852-14.717-17.35a18.312 18.312 0 0 0-3.569-.289c-1.91.03-3.742.37-5.465.951-9.871 3.927-12.18 14.885-12.087 21.715.093 6.831.26 14.762.26 14.762z"/><path fill="#8EDF00" d="M1105.802 463.973c-25.99 1.741-30.307 15.2-31.378 23.296-2.257 17.063 2.28-.977 2.28-.977 16.89-25.523 47.954-24.277 65.055 12.573 4.358-20.368-.375 1.17-2.518-13.478-2.142-14.648-14.92-22.655-33.44-21.414zM1085.4 571.53c6.082 2.98 8.31 7.241 22.865 10.168 14.555 2.926 10.913 2.96 13.161 3.326-3.738-2.124-29.695-10.263-36.026-13.494zm141.26-111.047c-30.949-.47-41.268 20.263-40.824 37.495.445 17.231.364 1.255.364 1.255 7.952-48.923 60.448-48.141 81.405-16.934-.081-8.048 2.647 21.625 1.125 6.83-1.522-14.794-20.02-28.312-42.07-28.646zm-5.548 115.1c-12.623-1.944-16.62-2.716 7.287 1.893 19.25 3.71 31.847-5.06 40.975-16.161-5.602 6.37-25.903 15.762-48.262 14.267z"/></g></g><g clip-path="url(#bz)" style="display:block" transform="matrix(-1 0 0 1 1976 -43.5)"><path fill="#FFCBA3" d="M213.388-328.748c6.289 0 11.387 5.152 11.387 11.509 0 6.356-5.098 11.51-11.387 11.51-6.288 0-11.386-5.154-11.386-11.51 0-6.357 5.098-11.51 11.386-11.51z" transform="rotate(1.914 -13665.634 30185.398)" style="display:block"/><path fill="#FFB100" d="M226.986-321.014c-7.226-3.97-12.43-1.15-15.014 2.833-2.583 3.984-2.72 10.938 4.017 14.968 6.737 4.03 21.298 15.907 30.77 25.37 3.635 3.632 11.243 4.672 16.218-.906 4.975-5.577 2.158-12.825-1.184-16.625-6.76-7.683-27.581-21.67-34.807-25.64z" transform="rotate(1.914 -13665.884 30200.366)" style="display:block"/><path fill="#3D3D3D" d="M177.129-311.398c0 9.562-7.753 17.314-17.315 17.314-9.562 0-17.314-7.752-17.314-17.314 0-9.562 7.752-17.315 17.314-17.315 9.562 0 17.315 7.753 17.315 17.315zm-22.584-13.16c-13.511-11.937-14.787-32.568-2.85-46.08l22.652-26.693c11.937-13.512 32.567-14.788 46.079-2.85 14.326 12.657 14.76 34.86.939 48.067l-.997.596a94.766 94.766 0 0 0-10.584 11.98l-7.422 9.988c-11.403 15.344-33.491 17.65-47.817 4.992z" transform="rotate(1.914 -16957.3 30968.773)" style="display:block"/><path fill="#E89665" d="M170.119-403.653c2.087.944 3.005 3.418 2.051 5.527-.954 2.109-6.986 5.386-6.986 5.386s-1.522-6.695-.568-8.804c.954-2.108 3.417-3.052 5.503-2.109z" transform="rotate(.849 -38941.81 69806.64)" style="display:block"/><path fill="#FFCBA3" d="M219.585-404.105c-21.544-12.439-49.093-5.057-61.532 16.488-12.439 21.545-5.057 49.093 16.487 61.532l29.192 16.854 45.045-78.02-29.192-16.854z" transform="rotate(1.914 -16948.604 30936.517)" style="display:block"/><g style="display:block"><path fill="#FFB100" d="M1224.88 205.158c-21.047 26.777-23.954 90.487 44.194 115.725l37.107-56.289 35.645-60.768c-51.86-30.823-90.229-32.659-116.946 1.332z"/><path fill="#FFF" d="M1261.708 201.007c2.025 2.136 1.673 5.759-.787 8.09-2.46 2.333-6.096 2.49-8.121.354-2.026-2.137-1.674-5.759.786-8.09 2.46-2.333 6.096-2.491 8.122-.354zm-32.08-9.05c24.324 13.85 46.527-7.136 37.7-11.721-3.97.11-9.602 1.892-14.395 3.304-9.676-1.342-18.125 3.323-23.304 8.416zm-16.205 30.278c18.345 9.752 43.638-19.87 23.965-31.917-5.13 2.894-19.027 14.561-23.965 31.917z"/><path fill="#FF9500" d="M1290.717 253.979c-20.155 32.363-31.295 60.943-22.064 66.691 9.23 5.749 31.045-16.703 51.2-49.066 20.156-32.363 31.018-62.382 21.788-68.13-9.23-5.749-30.769 18.142-50.924 50.505zm-37.734-70.441c16.794 1.462 39.705 10.399 55.652 19.146a7.99 7.99 0 0 0 8.17-.305c2.94-1.888 6.066-5.19 10.545-6.682-30.061-15.493-54.447-19.616-74.367-12.16zm-35.95 35.376c-10.912 26.701-7.544 67.774 31.862 92.216-3.563-14.89 11.603-43.758 17.745-57.37 1.705-3.778.255-8.233-3.358-10.267-9.81-5.522-31.226-18.293-46.25-24.58z"/></g><path fill="#FFCBA3" d="M208.585-408.855c-7.835-3.645-36.835-2.645-50.532 21.238-12.377 21.58-5.057 49.093 16.487 61.532 0 0 2.21 1.585 4.192 2.604C165-376.5 201.25-403.25 213.777-407.001c-1.277-.999-5.192-1.854-5.192-1.854z" transform="rotate(1.914 -16957.05 30953.81)" style="display:block"/><g style="display:block"><path fill="#9F9F9F" d="M1190.695 208.817c-6.201 16.54-2.48 35.995 10.23 48.366 4.608-17.986 2.703-38.535-10.23-48.366z"/><path fill="#B23232" d="m1220.193 198.44 1.191 3.326c1.122 3.134-.584 6.528-3.812 7.58-3.228 1.05-6.755-.639-7.878-3.773l-1.19-3.326c-1.123-3.135.583-6.528 3.811-7.58 3.228-1.051 6.755.638 7.878 3.773z"/></g><g mask="url(#bA)" style="display:block"><path fill="#F14C4C" d="M1214.517 204.023a6.493 6.493 0 0 1 5.336 3.86 5.993 5.993 0 0 1-10.513-1.318l-.19-.504a6.487 6.487 0 0 1 5.367-2.038z"/></g><g mask="url(#bB)" style="display:block"><path fill="#FFF" d="M1197.685 179.324c2.74-4.575 6.028-7.646 7.343-6.858.048.029 1.722 1.058 1.77 1.086 1.254.751-.074 5.202-2.714 9.61-2.639 4.408-5.936 7.682-7.19 6.93l-1.789-1.056c-1.315-.787-.16-5.136 2.58-9.712zm-12.403 20.843c2.74-4.575 6.027-7.646 7.343-6.858.048.029 1.722 1.057 1.77 1.085 1.254.751-.074 5.203-2.714 9.611s-5.936 7.68-7.19 6.93l-1.788-1.057c-1.316-.787-.161-5.135 2.579-9.71z"/><path fill="#4B4B4B" d="M1187.109 198.21c1.312-2.191 2.887-3.663 3.517-3.285.024.014 1.225.656 1.247.67.601.36-.035 2.493-1.3 4.604-1.264 2.111-2.843 3.68-3.444 3.32-.023-.014-1.233-.642-1.256-.656 2.049-2.389 2.74-4.957 1.236-4.653zm9.676-16.319c1.312-2.192 2.887-3.663 3.518-3.286.023.014 1.224.657 1.247.67.6.36-.036 2.493-1.3 4.604-1.265 2.112-2.845 3.68-3.445 3.32-.023-.013-1.233-.641-1.256-.655 2.049-2.389 2.74-4.958 1.236-4.653z"/><path stroke-linecap="round" stroke-linejoin="round" stroke="#E89665" stroke-width="3" d="m-50.353 5.574 8.892 4.251-8.985 3.287m74.943-6.57L17.39 8.811l8.055 3.69" fill="none" transform="matrix(.44674 -.74604 .21448 .12844 1199.477 181.51)"/></g><path fill="#FFCBA3" d="M195.646-320.448c7.101 0 12.857 5.818 12.857 12.995s-5.756 12.995-12.857 12.995c-7.1 0-12.856-5.818-12.856-12.995s5.756-12.995 12.856-12.995z" transform="rotate(1.914 -15407.933 28734.081)" style="display:block"/><path fill="#FFB100" d="M208.387-318.12c-9.32-.671-12.24 5.103-12.842 10.436-.6 5.333 1.09 12.133 9.934 13.097 8.845.964 33.133 5.472 45.814 8.54 5.064 1.194 12.328-1.374 14.016-8.8 1.689-7.426-4.394-12.5-9.248-14.243-9.814-3.52-38.354-8.359-47.674-9.03z" transform="rotate(1.914 -15423.4 28763.764)" style="display:block"/><path stroke-linecap="round" stroke-linejoin="round" stroke="#FF9500" stroke-width="12" d="M370.75-299.25s7.107 2.07 12 6.25" fill="none" transform="rotate(9.431 -2483.43 5789.627)" style="display:block"/><path stroke-linecap="round" stroke-linejoin="round" stroke="#FF9500" stroke-width="12" d="M349-258.75s5.64 6.317 8 12.25" fill="none" transform="rotate(-12.368 3315.369 -4432.352)" style="display:block"/><g style="display:block"><path stroke-linecap="round" stroke-linejoin="round" stroke="#00BDFF" stroke-width="7" d="m1168.907 157.275 6.624-3.127m-.995 13.5 5.749-3.002m-6.66 9.587c13.546-5.332 20.322 3.517 20.97.172" fill="none"/><path fill="#00BDFF" d="M1120.942 186.042c-2.096.44-3.795-1.702-2.89-3.642l2.512-5.385 6.192 7.806-5.814 1.22zm-4.248-8.966c-1.752-1.232-1.345-3.937.692-4.597l5.65-1.835-1.484 9.851-4.858-3.419zm24.439 14.37c-9.813 2.162-19.52-4.04-21.683-13.852-2.162-9.813 4.04-19.52 13.853-21.683 0 0 11.606-2.468 19.884-6.088 8.277-3.621 19.901-1.151 24.53 7.767 4.627 8.919.785 19.667-7.77 24.529-8.554 4.862-28.814 9.327-28.814 9.327z"/><path fill="#FFF" d="M1140.395 183.27a6.173 6.173 0 0 1-7.739-4.04l-2.205-7.028a6.173 6.173 0 0 1 11.779-3.697l2.205 7.027a6.173 6.173 0 0 1-4.04 7.738z"/><path fill="#FFA3A3" d="M1135.112 173.52c.56.272.775.958.471 1.502l-.831 1.487c-.464.829-1.694.701-1.979-.204l-.7-2.232c-.285-.906.652-1.714 1.506-1.299l1.533.746z"/><path fill="#00729A" d="M1130.896 178.843a2.274 2.274 0 1 0-4.439-.992 2.274 2.274 0 0 0 4.44.992zm-1.148-3.807a2.273 2.273 0 1 0-4.438-.99 2.273 2.273 0 1 0 4.438.99z"/></g></g><g clip-path="url(#bJ)" style="display:block" transform="matrix(-1 0 0 1 1916 -23.5)"><g style="display:block"><path fill="#4CC5FF" d="M1606.632 805.665c2.219-5.693 8.633-8.51 14.326-6.291l21.57 8.408c5.693 2.218 8.51 8.63 6.291 14.324l-2.14 5.49c-4.522 11.127-12.225 9.457-25.257 6.346-12.493-3.843-21.392-9.978-17.58-20.822l2.79-7.455z"/><path fill="#1CB0F6" d="M1623.903 818.134c-9.454-3.409-13.493-9.608-11.646-14.833 2.89-8.175 13.61-28.26 21.085-37.19 4.979-5.948 23.62-19.228 44.153-29.072 9.071-4.348 19.947-.52 24.298 8.55 4.349 9.07.52 19.948-8.55 24.298-11.139 5.344-28.887 17.309-32.255 20-2.315 3.39-10.869 15.456-14.442 25.616-2.306 6.556-14.106 5.71-22.643 2.631z"/><path stroke-linecap="round" stroke="#FF4B4B" stroke-width="12.767" d="M1597.63 848.659c11.749-.94 21.293-7.684 21.293-7.684" fill="none"/></g><g style="display:block"><path fill="#A46648" d="m1647.967 670.891 31.807 38.75c4.283 5.122 11.907 5.802 17.029 1.519 5.122-4.282 5.802-11.905 1.518-17.028l-33.735-37.1c-3.828-4.59-10.65-5.207-15.24-1.38-4.589 3.827-5.206 10.65-1.379 15.24z"/><path stroke-linecap="round" stroke-linejoin="round" stroke="#A46648" stroke-width="8.414" d="m1636.843 658.079 11.56 5.525m-4.82-20.166.897 13.113m8.42-14.673-1.925 15.208m10.058-9.65-4.26 8.593" fill="none"/></g><g style="display:block"><path fill="#3D3D3D" d="m1722.188 644.186 26.802-17.327c9.789-6.317 22.845-3.504 29.162 6.285l6.129 9.493c6.317 9.789 3.503 22.845-6.286 29.163l-8.49 5.48c-9.788 6.317-22.844 3.503-29.162-6.285l-18.155-26.81zm9.797-4.95-17.274 44.212-26.593-11.035c-9.678-4.287-14.049-15.609-9.762-25.286l4.158-9.388c4.286-9.678 15.607-14.048 25.285-9.761l24.186 11.259zm24.085 21.574c.542 10.572-51.545 13.239-52.087 2.668l-1.739-33.945c-.541-10.57 7.59-19.58 18.161-20.121l13.804-.707c10.572-.542 19.58 7.589 20.122 18.16l1.739 33.945z"/><path fill="#A46648" d="m1731.523 713.685-36.303-14.613c-8.117-3.267-12.571-12.029-10.43-20.512l5.99-23.716a14.638 14.638 0 0 1 11.313-10.478l28.091-5.47a19.867 19.867 0 0 1 18.068 5.682l10.544 14.062a26.795 26.795 0 0 1 3.34 26.272l-7.848 19.07c-3.606 8.968-13.799 13.313-22.765 9.703z"/><path fill="#FDB02A" d="m1760.729 688.332 1.408-3.42a26.795 26.795 0 0 0-3.34-26.272l-10.545-14.062a19.867 19.867 0 0 0-18.068-5.682l-14.585 2.84c11.246 3.453 32.625 13.53 45.13 46.596zm-45.13-46.595-13.506 2.63a14.638 14.638 0 0 0-11.314 10.477l-2.062 8.165c8.9-11.306 26.882-21.272 26.882-21.272zm.798-1.391c.187.707-.34 1.346-1.07 1.391-6.554.404-13.763-3.683-14.816-11.382-.099-.725.338-1.404 1.069-1.392 9.687.165 13.405 6.082 14.817 11.383zm-.686 1.341a1.102 1.102 0 0 1-1.391-1.068c-.014-4.194 1.068-12.2 11.382-14.817.71-.18 1.391.338 1.392 1.069.014 7.673-3.897 12.818-11.383 14.816z"/><path fill="#A46648" d="M1760.05 678.41a8.151 8.151 0 0 1-10.805 4.022 8.151 8.151 0 0 1-4.022-10.805 8.152 8.152 0 0 1 10.805-4.022 8.152 8.152 0 0 1 4.022 10.804z"/></g><g style="display:block"><path fill="#FFF" d="M1712.454 659.753c.505-3.92 4.184-7.083 8.075-6.94 3.892.141 6.415 3.532 5.534 7.437l-1.715 7.618c-.778 3.45-4.092 6.065-7.53 5.938-3.439-.127-6.332-1.775-5.888-5.237l1.524-8.816z"/><path fill="#A46648" d="M1709.814 671.87c1.778-2.523 11.926-5.387 16.049-4.35l-4.608 9.167c-6.277 1.028-11.441-4.816-11.441-4.816z"/><path stroke-linecap="round" stroke="#86401F" stroke-width="4" d="M1695.707 665.744c4.435-2.995 8.548 1.016 8.548 1.016" fill="none"/><path fill="#86401F" d="M1708.544 667.463c.1.018 1.81 3.5 1.564 4.816a2.425 2.425 0 0 1-4.767-.893c.247-1.317 3.104-3.942 3.203-3.923zm-.88 7.085-2.101.032a2.497 2.497 0 0 1-.072-4.993l2.101-.031a2.498 2.498 0 0 1 .073 4.992z"/><path fill="#A41414" d="M1722.75 678.654c-1.815 5.861-12.044 9.79-19.065 5.263-2.075-1.338-1.141-4.287 1.219-5.009 3.234-.99 6.122-2.703 8.823-5.068 2.702-2.364 6.026-2.898 7.962-.374 1.014 1.322 1.718 3.072 1.062 5.188z"/><path stroke-linecap="round" stroke="#3D3D3D" stroke-width="6.095" d="m1720.475 659.49-.635 4.934" fill="none"/><path fill="#E64340" d="M1712.068 682.464c-1.275-2.405.436-5.81 3.822-7.604 2.22-1.177 4.609-1.369 6.35-.683.705 1.207 1.055 2.692.563 4.45-1.013 3.61-4.67 5.39-6.311 6.022-1.963.027-3.652-.729-4.424-2.185z"/><path fill="#E7E7E7" d="M1717.807 675.769a5.596 5.596 0 0 1-9.373 1.728c1.896-.942 2.944-1.537 5.345-3.685 2.4-2.148 6.027-2.898 7.963-.373.268.35.511.728.711 1.135-.356.33-1.621 2.19-4.646 1.195z"/></g><path fill="#FDB02A" d="m749.545 173.4-6.236 3.947c-11.545 7.307-26.828 3.871-34.135-7.675l-3.946-6.236c-7.229-11.421-3.83-26.538 7.59-33.766 14.99-9.487 34.832-5.027 44.319 9.963 7.228 11.421 3.829 26.539-7.592 33.767zm-2.502-9.683-33.434-7.517 4.609-20.499c2.076-9.233 11.242-15.035 20.475-12.959 9.232 2.076 15.034 11.242 12.958 20.475l-4.608 20.5z" transform="rotate(.304 -106009.748 184013.711)" style="display:block"/><path fill="#1CB0F6" d="M740.472 155.971c10.32 11.635 9.254 29.433-2.381 39.753s-29.433 9.254-39.753-2.381-9.254-29.433 2.381-39.753 29.433-9.254 39.753 2.381z" transform="rotate(.304 -106103.957 184013.467)" style="display:block"/><g style="display:block"><path stroke-linecap="round" stroke-linejoin="round" stroke="#A46648" stroke-width="13" d="m1756.08 739.918 11.814-22.096m-2.738 25.634 17.558-11.535" fill="none"/><path fill="#A46648" d="m1721.781 722.144 11.32 33.597 34.016-17.138s-31.438-25.538-31.485-25.557c-2.524-2.215-6.107-2.787-9.182-1.42a8.586 8.586 0 0 0-4.669 10.518zm50.975 31.227.043-.404c.579-5.573-.911-10.881-3.817-15.059-3.22-4.63-8.178-7.872-13.988-8.553-11.052-1.294-20.99 7.182-22.21 18.927l-.043.405c-1.22 11.745 6.738 22.32 17.791 23.613 11.054 1.292 21.003-7.182 22.224-18.93z"/><path stroke-linecap="round" stroke="#86401F" stroke-width="4" d="m1743.545 740.977 14.705.295c3.729.074 6.85 3.25 6.974 7.09 0 0 0 0 0 0 .123 3.84-2.801 6.894-6.53 6.819l-14.705-.295" fill="none"/></g><g style="display:block"><path fill="#1CB0F6" d="M1691.852 769.283c-8.948.005-17.095-6.044-19.375-15.116-.852-3.39-1.973-7.477-3.498-11.679-6.457 4.317-13.953 9.732-20.33 14.522-8.82 6.624-21.34 4.843-27.964-3.977-6.623-8.82-4.843-21.342 3.977-27.965a653.06 653.06 0 0 1 19.036-13.62c19.186-13.163 27.781-17.493 37.494-15.418a20.711 20.711 0 0 1 12.57 8.252c10.047 13.668 14.78 29.44 17.47 40.146 2.69 10.702-3.805 21.558-14.507 24.248-1.63.41-3.266.606-4.873.607z"/><path stroke-linecap="round" stroke-linejoin="round" stroke="#0395DB" stroke-width="4" d="m1650.327 753.724 18.212-12.926s4.387 22.123 12.014 24.994" fill="none"/><path fill="#5EC6FF" d="M1636.162 768.287c-3.858 2.86-12.809-2.679-19.992-12.37-7.183-9.692-9.88-19.867-6.022-22.727.995-.737 12.644-9.218 15.063-10.925 3.896-2.748 12.797 3.068 19.73 12.208 6.932 9.14 9.87 19.493 5.985 22.704-3.885 3.212-14.245 10.726-14.764 11.11z"/><path stroke-linecap="round" stroke="#33B4F7" stroke-width="4.078" d="M1615.156 735.663c4.016 1.672 8.858 5.757 13.009 11.36 4.152 5.602 6.65 11.424 7.081 15.754" fill="none"/><path stroke-linecap="round" stroke="#FF4B4B" stroke-width="13.049" d="M1604.847 734.749c1.753 12.041 9.083 21.426 9.083 21.426" fill="none"/></g></g><g clip-path="url(#bN)" style="display:block" transform="matrix(-1 0 0 1 1916 -23.5)"><path fill="#FFB7E3" d="M467.017-248.933s-21.285-1.263-52.276-3.165c-15.682-.962-21.741 12.598-21.142 21.885.599 9.287 9.345 23.196 24.422 18.787 30.521-8.926 62.293-17.748 62.293-17.748l-13.297-19.759z" transform="rotate(6.045 -4430.468 9274.83)" style="display:block"/><g style="display:block"><path fill="#FFB7E3" d="M1391 311.074c-30.643-5.103-46.956-7.404-60.245-9.192-13.289-1.788-24.84 15.446-24.08 31.232.767 15.896 13.675 28.538 27.188 26.925 13.579-1.618 24.876-2.608 56.115-8.174 15.396-2.743 18.772-11.91 19.346-19.393.574-7.483-2.784-18.81-18.325-21.398z"/><path fill="#FF9BDE" d="M1345.961 336.144c-3.01 12.636-13.335 20.748-23.06 18.119-9.724-2.63-15.167-15.003-12.156-27.639 3.01-12.635 13.335-20.747 23.06-18.119 9.724 2.63 15.166 15.004 12.156 27.64z"/></g><path stroke-linecap="round" stroke-linejoin="round" stroke="#FF7AD5" stroke-width="27.24" d="M332.689-229.747c4-8.5 9.405-19.73 14.996-28.555" fill="none" transform="rotate(-13.249 3207.195 -4147.358)" style="display:block"/><path stroke-linecap="round" stroke-linejoin="round" stroke="#FF86D0" stroke-width="15" d="M502.881-191.052c.376-4.651-.544-10.655-2.324-15.564" fill="none" transform="rotate(-27.581 2155.834 -1902.164)" style="display:block"/><path fill="#FFB7E3" d="M477.637-216.167c-7.613 5.833-.003.004-.006.006 0 0-18.631 14.661-50.031 23.985-8.308 2.467-15.805 6.766-15.948 15.431-.142 8.665 6.764 15.82 15.43 15.948 28.668.422 61.793-23.578 70.09-30.808 7.129-6.212 7.901-15.269 2.504-22.049-5.394-6.777-14.426-8.346-22.039-2.513z" transform="rotate(6.55 -4027.97 8584.001)" style="display:block"/><path fill="#FFB7E3" d="M457.463-227.353c-11.621 5.879-32.272 15.702-43.279 41.145-11.007 25.443 20.779 26.539 27.111 14.999 7.705-14.041 24.272-24.118 27.134-26.05 17.148-11.237 6.297-41.165-10.961-30.097" transform="rotate(4.752 -5899.156 11796.198)" style="display:block"/><path fill="#FFB3E6" d="M528.609-252.517c-1.324-2.088 4.65-9.711 4.65-9.711l14.956 10.268a12.758 12.758 0 0 0 7.223 2.241l22.195.002c4.776 0 7.827 5.094 5.572 9.305l-2.776 5.185a32.342 32.342 0 0 0-3.439 10.258c-.964 6.153-7.198 9.99-13.126 8.079l-5.291-1.706a42.078 42.078 0 0 1-26.151-24.402l-3.813-9.519z" transform="rotate(1.065 -29768.842 52513.593)" style="display:block"/><g style="display:block"><path fill="#FFB7E3" d="M1470.236 302.912c17.232 14.678 19.302 40.544 4.625 57.776-7.108 8.346-20.312 14.526-33.28 11.076-13.897-3.697-22.545-16.305-28.198-26.517-3.375-6.096-5.576-11.479-6.567-18.236-.991-6.758.925-14.28 5.645-19.473 15.226-16.75 40.543-19.302 57.775-4.626z"/><path fill="#FF86D0" d="M1484.081 340.893a41.1 41.1 0 0 0 .54-5.643l-6.299-15.894-18.095-22.732a40.495 40.495 0 0 0-3.783-1.452l-5.927-1.465c-.023-.004-.045-.01-.068-.013-8.407 7.076-10.367 20.714-3.611 31.445 7.948 12.626 21.045 19.924 37.243 15.754z"/><path fill="#FFB3E6" d="M1459.67 331.462a.666.666 0 0 1 .98.013l2.623 2.915a.666.666 0 0 1-.013.906l-4.572 4.78a.666.666 0 0 1-.943.02l-2.807-2.689a.667.667 0 0 1-.022-.94l4.754-5.005zm-12.02-23.39c.363-.14.767.06.878.433l1.116 3.76a.666.666 0 0 1-.403.812l-6.182 2.349a.666.666 0 0 1-.86-.387l-1.379-3.634a.667.667 0 0 1 .385-.86l6.445-2.473z"/><path fill="#1CB0F6" d="M1459.073 288.814c27.471-1.019 39.39 22.545 31.533 41.722l-1.006 2.452c-3.495 8.53-23.365 11.278-35.432-7.142-14.173-19.712-5.438-36.214 4.905-37.032z"/></g><path stroke-linecap="round" stroke-linejoin="round" stroke="#1CB0F6" stroke-width="21" d="M490.399-355.31s1.15 26.722 1.099 39.164c-.053 12.617-1.414 36.012-1.414 36.012" fill="none" transform="rotate(3.226 -9142.587 17349.692)" style="display:block"/><path stroke-linecap="round" stroke="#1CB0F6" stroke-width="21" d="M510.434-244.456s24.956 3.529 37.44 5.402c14.929 2.24 44.747 6.929 44.747 6.929" fill="none" transform="rotate(3.226 -9142.587 17349.692)" style="display:block"/><path fill="#E18E70" d="M495.071-354.738c-6.063 6.951-16.614 7.671-23.566 1.608-6.952-6.064-7.672-16.615-1.609-23.566 6.064-6.952 16.615-7.673 23.567-1.609 6.952 6.064 7.671 16.615 1.608 23.567z" transform="rotate(3.226 -9142.063 17512.404)" style="display:block"/><path fill="#E18E70" d="M592.492-232.902c-7.193-7.197-7.191-18.862.006-26.057 7.198-7.194 18.865-7.191 26.058.006 7.194 7.198 7.191 18.864-.007 26.058-7.198 7.194-18.862 7.19-26.057-.007z" transform="rotate(3.226 -9348.922 17217.103)" style="display:block"/><path fill="#FFB3E6" d="M606.933-297.91c-9.289 35.122-45.292 56.063-80.414 46.774-35.122-9.29-56.063-45.292-46.774-80.414 9.289-35.122 45.292-56.063 80.414-46.774 35.122 9.289 56.063 45.292 46.774 80.414z" transform="rotate(4.955 -5609.458 11260.936)" style="display:block"/><g style="display:block"><path fill="#E18E70" d="M1528.822 241.476c18.334 17.398 20.626 44.786 5.117 61.175-15.508 16.39-39.167 16.819-57.502-.579-18.334-17.398-24.401-46.034-8.893-62.423 15.508-16.39 42.944-15.571 61.278 1.827z"/><path fill="#A70000" d="M1477.523 296.738c-1.28 3.568 2.055 11.324 16.703 16.163 14.648 4.84 18.052-4.35 18.799-6.43.746-2.083 2.606-11.227-4.62-13.615-5.663-1.87-13.237 2.502-20.269.18-7.032-2.323-9.332.133-10.613 3.702z"/><path fill="#FFF" d="M1508.407 292.858c-2.68-.886-5.786-.373-9.06.166-3.649.601-7.506 1.237-11.21.013-3.258-1.076-5.5-1.127-7.096-.516 1.696 2.207 4.8 4.46 9.84 6.213 9.262 3.202 17.186 1.175 21.947-1.564-.558-1.983-2.17-3.568-4.421-4.312z"/><path fill="#9E4D31" d="M1489.478 278.839c.13.11-.258 6.632-1.6 8.373-1.335 1.734-4.177 1.681-5.875.21-1.697-1.472-1.842-3.694-.405-5.248 1.326-1.582 7.753-3.447 7.88-3.335zm-14.201-20.035c-.818-.176-1.305-.994-1.088-1.827.218-.832 1.06-1.365 1.878-1.188 5.862 1.265 9.164 4.833 10.848 8.754 1.657 3.857 1.754 8.04 1.336 10.76-.13.846-.914 1.461-1.752 1.374-.836-.087-1.408-.844-1.278-1.691.349-2.269.26-5.857-1.132-9.1-1.366-3.178-3.982-6.04-8.812-7.082zm38.593 28.853c.454.678 1.413.897 2.14.49.726-.407.946-1.287.492-1.965-3.462-5.16-8.243-7.368-12.794-7.978-4.48-.6-8.707.345-11.277 1.418-.776.324-1.108 1.171-.743 1.893.365.721 1.29 1.044 2.066.72 2.136-.891 5.768-1.705 9.563-1.196 3.725.5 7.636 2.269 10.553 6.618z"/><path fill="#3B3B3B" d="M1554.686 272.325c.356-1.402-1.195-2.724-2.582-2.594-1.628.282-3.728.035-6.274-1.357-4.424-2.386-7.437-29.554-35.802-39.324-9.538-3.407-25.012-2.954-26.175 1.12-3.745 13.528.161 40.519 31.498 51.23 27.654 9.562 36.186-1.218 39.335-9.075z"/></g></g><g clip-path="url(#bY)" style="display:block" transform="matrix(-1 0 0 1 1916 -23.5)"><g mask="url(#bZ)" style="display:block"><g clip-path="url(#ca)"><path stroke-linecap="round" stroke-linejoin="round" stroke="#3D3D3D" stroke-width="24" d="M541.75 368c5.75 8.75 22.071 22.16 22.071 22.16s9.652.563 23.644-1.326" fill="none" transform="rotate(-9.11 4354.258 -5393.201)" style="display:block"/><path fill="#3D3D3D" d="M512.822 280.06c15.183 0 27.49 14.439 27.49 32.25s-11.945 31.792-27.127 31.792c-15.183 0-28.498-13.935-28.498-31.746s12.953-32.296 28.135-32.296zm42.007 8.461c27.307-.92 52.572 12.572 49.84 34.149-2.938 22.605-19.615 28.667-42.592 29.414-51.772 1.682-69.013-61.431-7.248-63.563z" transform="rotate(-9.109 4362.976 -5432.025)" style="display:block"/><path fill="#DB8D74" d="M521.5 303c-16.5 11-42 12.5-66 13.5s-53.834 22.53-51 52c2.5 26 27.5 43 54.5 43.5 30.012.556 61-2.5 100.5-24s36.5-55.5 23.5-77-45-19-61.5-8z" transform="rotate(-9.109 4402.023 -5457.243)" style="display:block"/><g mask="url(#cb)" style="display:block"><path fill="#FFAADE" d="M1468.792 841.61c12.427-6.185-147.165-13.811-120.437 92.452 30.73 122.176 217.602-3.651 184.733 8.865-17.897 6.816-41.736 8.939-56.367 3.882a49.323 49.323 0 0 1-8.49-3.847 45.313 45.313 0 0 1-7.262-5.177c-7.568-6.619-14.33-16.647-18.685-28.457-8.91-24.162 8.32-58.662 26.508-67.717zm-25.07 10.977s-114.157-4.13-96.099 80.073c18.06 84.203 141.243 30.813 141.243 30.813s-62.586-1.527-74.42-43.238c-11.621-40.965 29.275-67.648 29.275-67.648zm-33.714 27.144-3.343 6.174 11.34-1.671 2.964-6.322-10.961 1.82zm17.818-22.98s-95.668 11.04-77.161 75.928c18.506 64.889 118.324 35.114 118.324 35.114s-49.687-4.403-62.52-45.924c-11.123-35.997 21.357-65.117 21.357-65.117zm-14.127 60.831-9.549 3.614 3.079 8.3 9.086-4.285-2.616-7.629z"/><path fill="#A56641" d="M1443.721 852.587s-114.156-4.13-96.098 80.073c18.06 84.203 141.243 30.813 141.243 30.813s-62.586-1.527-74.42-43.238c-11.621-40.965 29.275-67.648 29.275-67.648z"/><path fill="#2CE69B" d="m1410.008 879.731-3.343 6.174 11.34-1.671 2.964-6.322-10.961 1.82zm17.818-22.98s-95.668 11.04-77.161 75.928c18.506 64.889 118.324 35.114 118.324 35.114s-49.687-4.403-62.52-45.924c-11.123-35.997 21.357-65.117 21.357-65.117zm-14.127 60.831-9.549 3.614 3.079 8.3 9.086-4.285-2.616-7.629z"/></g><g mask="url(#cc)" style="display:block"><path fill="#3D3D3D" d="M1462.547 803.475c-19.072 4.325-23.167 26.007-21.527 40.165 1.641 14.17 5.775 29.457 22.575 35.879 17.633 6.739 36.744-6.905 35.684-37.118-.764-21.8-17.659-43.25-36.732-38.926z"/></g><path fill="#3D3D3D" d="M557.75 265.5c16.983 0 30.75 13.711 30.75 30.625s-13.767 30.625-30.75 30.625S527 313.039 527 296.125s13.767-30.625 30.75-30.625z" transform="rotate(-9.109 4355.419 -5333.57)" style="display:block"/><path fill="#DB8D74" d="M512.021 320.5c6.639 0 12.02 5.382 12.02 12.021 0 6.639-5.381 12.02-12.02 12.02-6.639 0-12.021-5.381-12.021-12.02 0-6.639 5.382-12.021 12.021-12.021z" transform="matrix(.54866 -.08797 .11874 .74054 1145.709 673.945)" style="display:block"/><g style="display:block"><path fill="#B82C2C" d="M1492.311 904.137a2.511 2.511 0 0 1 3.466-.781l25.792 16.307a2.511 2.511 0 0 1 .78 3.466l-.156.248c-5.245 8.296-16.221 10.767-24.516 5.523-8.295-5.245-10.767-16.221-5.523-24.516l.157-.247z"/><path fill="#FD5050" d="M1508.538 931.598a17.69 17.69 0 0 1-10.862-2.699 17.713 17.713 0 0 1-7.785-10.884 17.65 17.65 0 0 1 10.872 2.689 17.668 17.668 0 0 1 7.775 10.894z" opacity=".8"/></g><path stroke-linecap="round" stroke-linejoin="round" stroke="#3D3D3D" stroke-width="24" d="M536.818 374.269c8.057 4.734 26.951 16.388 26.951 16.388l23.21-.46" fill="none" transform="rotate(-9.11 4354.258 -5393.201)" style="display:block"/><g style="display:block"><path fill="#FFF" d="M1534.35 902.2s11.517-6.41 15.963-8.343c1.974-8.093 5.177-22.134-2.242-23.22-5.769.725-9.09 9.352-9.88 13.316l-3.84 18.247zm-6.49-29.96-.695-.255c-5.586-1.488-11.634.886-13.13 6.432l-3.72 13.613c11.063 1.845 19.388 8.883 19.388 8.883l3.98-16.34c1.029-3.813-.903-10.875-5.823-12.334z"/><path fill="#3D3D3D" d="M1540.422 881.163c.446-2.822 2.165-5.039 4.276-4.769 2.11.27 3.022 2.735 2.575 5.556l-.281 1.778c-.447 2.821-2.178 4.905-4.191 4.66-2.014-.245-3.107-2.627-2.66-5.448l.28-1.777zm-23.825-1.23c.589-2.762 3.416-4.408 5.36-4.042 1.942.366 3.621 3.1 3.032 5.86l-.37 1.74c-.59 2.761-3.224 4.506-5.168 4.14-1.943-.365-3.815-3.197-3.226-5.959l.372-1.739z"/></g><path stroke-linecap="round" stroke-linejoin="round" stroke="#3D3D3D" stroke-width="12" d="M568.75 333.5s7.5-2 11.5 1m17.608 3.473s7.344 2.513 8.997 7.232" fill="none" transform="rotate(-10.668 3845.388 -4495.143)" style="display:block"/><path fill="#DB8D74" d="M571.295 372.25c4.029 0 7.295 3.217 7.295 7.186s-3.266 7.186-7.295 7.186-7.295-3.217-7.295-7.186 3.266-7.186 7.295-7.186z" transform="rotate(-9.109 4141.49 -5015.431) scale(1.1)" style="display:block"/></g></g><g style="display:block"><path fill="#DB8D74" d="M1426.49 950.162c-7.73 3.358-18.574 7.436-15.622 17.87 2.649 9.365 14.427 8.407 22.003 4.915 3.968 4.666 9.753 1.05 7.448-3.814-3.86-8.144-7.334-21.794-13.83-18.971z"/><path stroke-linecap="round" stroke-linejoin="round" stroke="#FFAADE" stroke-width="25" d="m1431.694 928.325-.584 27.765" fill="none"/></g></g></g></svg>